<svg xmlns="http://www.w3.org/2000/svg" version="1.1" width="3300" height="2000"><g id="Notes"><style>
    text {
      font-family: monospace;
      text-anchor: middle;
    }
    text.emphasis {
      font-weight:bold;
    }
    text.lanchor {
      text-anchor: start;
    }
  </style><rect height="2200" id="artboard" fill="white" width="3300" x="0" y="0"/><line id="" style="fill:none;stroke:black;stroke-width:0.5;" x1="263" x2="3036" y1="292" y2="292"/><text class="lanchor emphasis" transform="matrix(1 0 0 1 263 322)">Weight/Scale Variations</text><text transform="matrix(1 0 0 1 559.711 322)">Ultralight</text><text transform="matrix(1 0 0 1 856.422 322)">Thin</text><text transform="matrix(1 0 0 1 1153.13 322)">Light</text><text transform="matrix(1 0 0 1 1449.84 322)">Regular</text><text transform="matrix(1 0 0 1 1746.56 322)">Medium</text><text transform="matrix(1 0 0 1 2043.27 322)">Semibold</text><text transform="matrix(1 0 0 1 2339.98 322)">Bold</text><text transform="matrix(1 0 0 1 2636.69 322)">Heavy</text><text transform="matrix(1 0 0 1 2933.4 322)">Black</text><text id="template-version" style="text-anchor: end;" transform="matrix(1 0 0 1 3036 1933)">Template v.1.0</text><text class="lanchor" transform="matrix(1 0 0 1 263 726)">Small</text><text class="lanchor" transform="matrix(1 0 0 1 263 1156)">Medium</text><text class="lanchor" transform="matrix(1 0 0 1 263 1586)">Large</text></g><g id="Guides"><g id="H-reference" style="fill:#27AAE1;stroke:none;" transform="matrix(1 0 0 1 339 696)"><path d="M 54.9316 0 L 57.666 0 L 30.5664 -70.459 L 28.0762 -70.459 L 0.976562 0 L 3.66211 0 L 12.9395 -24.4629 L 45.7031 -24.4629 Z M 29.1992 -67.0898 L 29.4434 -67.0898 L 44.8242 -26.709 L 13.8184 -26.709 Z"/></g><line id="Baseline-S" style="fill:none;stroke:#27AAE1;opacity:1;stroke-width:0.577;" x1="263" x2="3036" y1="696" y2="696"/><line id="Capline-S" style="fill:none;stroke:#27AAE1;opacity:1;stroke-width:0.577;" x1="263" x2="3036" y1="625.541" y2="625.541"/><g id="H-reference" style="fill:#27AAE1;stroke:none;" transform="matrix(1 0 0 1 339 1126)"><path d="M 54.9316 0 L 57.666 0 L 30.5664 -70.459 L 28.0762 -70.459 L 0.976562 0 L 3.66211 0 L 12.9395 -24.4629 L 45.7031 -24.4629 Z M 29.1992 -67.0898 L 29.4434 -67.0898 L 44.8242 -26.709 L 13.8184 -26.709 Z"/></g><line id="Baseline-M" style="fill:none;stroke:#27AAE1;opacity:1;stroke-width:0.577;" x1="263" x2="3036" y1="1126" y2="1126"/><line id="Capline-M" style="fill:none;stroke:#27AAE1;opacity:1;stroke-width:0.577;" x1="263" x2="3036" y1="1055.54" y2="1055.54"/><g id="H-reference" style="fill:#27AAE1;stroke:none;" transform="matrix(1 0 0 1 339 1556)"><path d="M 54.9316 0 L 57.666 0 L 30.5664 -70.459 L 28.0762 -70.459 L 0.976562 0 L 3.66211 0 L 12.9395 -24.4629 L 45.7031 -24.4629 Z M 29.1992 -67.0898 L 29.4434 -67.0898 L 44.8242 -26.709 L 13.8184 -26.709 Z"/></g><line id="Baseline-L" style="fill:none;stroke:#27AAE1;opacity:1;stroke-width:0.577;" x1="263" x2="3036" y1="1556" y2="1556"/><line id="Capline-L" style="fill:none;stroke:#27AAE1;opacity:1;stroke-width:0.577;" x1="263" x2="3036" y1="1485.54" y2="1485.54"/><rect height="119.336" id="left-margin" style="fill:darkred;stroke:none;opacity:0.4;" width="12.4512" x="1394.06" y="1030.79"/><rect height="119.336" id="right-margin" style="fill:darkgreen;stroke:none;opacity:0.4;" width="12.4512" x="1502.5112" y="1030.79"/><rect x="1406.5112" y="1045" width="96" height="96" fill="none" stroke="blue" stroke-dasharray="5"/><rect x="1394.06" y="1030.79" width="120.9024" height="119.336" fill="none" stroke="blue"/></g><g id="Symbols"><g id="Bold-L" transform="matrix(1 0 0 1 2266 1556)"><path d="M144.8025 -43.937499999999986  140.12625 -54.25749999999999  129.645 -59.25624999999998  140.1162525 -64.10374749999998  144.8025 -74.57499999999999  149.770935 -64.06343499999998  160.12125 -59.25624999999998  149.770935 -54.28781499999998  144.8025 -43.937499999999986 Z M124.32375 -75.86499999999998  117.22875 -91.50625  101.42625 -98.76249999999999  117.22875 -106.01874999999998  124.32375 -121.66  131.74125 -106.01874999999998  147.3825 -98.76249999999999  131.7815625 -91.4659375  124.32375 -75.86499999999998 Z M54.260625000000005 36.687500000000014 Q48.221812500000006 36.687500000000014 44.02528125 32.091875000000016 Q39.82875 27.496250000000018 39.82875 20.723750000000017 H69.015 Q69.015 27.496250000000018 64.69043625 32.091875000000016 Q60.36587250000001 36.687500000000014 54.260625000000005 36.687500000000014 Z M27.09 9.758750000000013 V-1.851249999999986 H81.5925 V9.758750000000013 H27.09 Z M27.896250000000002 -12.654999999999987 Q16.125 -20.233749999999986 9.030000000000001 -31.649282499999984 Q1.935 -43.06465374999999 1.935 -57.48201624999999 Q1.935 -78.72718749999999 17.448217500000002 -94.30796874999999 Q32.961435 -109.88874999999999 54.293842500000004 -109.88874999999999 Q75.62625 -109.88874999999999 91.186875 -94.30796874999999 Q106.7475 -78.72718749999999 106.7475 -57.48249999999999 Q106.7475 -43.13124999999998 99.733125 -31.68249999999999 Q92.71875 -20.233749999999986 80.78625 -12.654999999999987 H27.896250000000002 Z M33.2175 -27.812499999999986 H75.73864125 Q83.04375 -32.81124999999999 87.316875 -40.55124999999998 Q91.59 -48.29124999999999 91.59 -57.44718624999997 Q91.59 -72.80124999999998 80.625 -83.68562499999999 Q69.66 -94.57 54.260625000000005 -94.57 Q38.86125 -94.57 28.0575 -83.68562499999999 Q17.25375 -72.80124999999998 17.25375 -57.44718624999997 Q17.25375 -48.29124999999999 21.449636249999998 -40.532061249999984 Q25.645683750000003 -32.77287249999999 33.2175 -27.812499999999986 Z"/></g><g id="Semibold-L" transform="matrix(1 0 0 1 1970.27 1556)"><path d="M144.03140249999998 -46.25095374999998  139.77569250000002 -55.58942499999999  130.346115 -60.02734749999999  139.77004875 -64.37980749999998  144.03140249999998 -73.80390249999998  148.4522325 -64.35707124999999  157.80779625 -60.02734749999999  148.4522325 -55.60651749999998  144.03140249999998 -46.25095374999998 Z M123.5526525 -76.56611499999998  117.0884625 -90.59486499999997  102.96860625000001 -97.15016125  117.0884625 -103.70529625  123.5526525 -117.7342075  130.19889375 -103.70529625  144.22780500000002 -97.15016125  130.22179125 -90.57212874999999  123.5526525 -76.56611499999998 Z M55.90811625 33.46266125000002 Q50.11117875 33.46266125000002 46.09153875 29.217593750000013 Q42.07206 24.972526250000016 42.07206 18.760853750000013 H69.926385 Q69.926385 24.972526250000016 65.83450500000001 29.217593750000013 Q61.742625 33.46266125000002 55.90811625 33.46266125000002 Z M29.193183750000003 8.216393750000016 V-2.5523649999999876 H82.714155 V8.216393750000016 H29.193183750000003 Z M29.99943375 -12.93541374999998 Q18.7188675 -20.233749999999986 12.009416250000001 -31.20794124999999 Q5.299965 -42.182293749999985 5.299965 -56.010126249999985 Q5.299965 -76.57143624999998 20.307986250000003 -91.61767375 Q35.316007500000005 -106.66391124999998 55.92682125 -106.66391124999998 Q76.537635 -106.66391124999998 91.57242375 -91.61767375 Q106.6072125 -76.57143624999998 106.6072125 -56.01028749999999 Q106.6072125 -42.219864999999984 99.9785475 -31.22680749999998 Q93.34972125 -20.233749999999986 81.907905 -12.93541374999998 H29.99943375 Z M34.549425 -25.709316249999986 H77.58253500000001 Q85.07678999999999 -30.778209999999987 89.45505 -38.72847999999999 Q93.83331000000001 -46.678911249999985 93.83331000000001 -55.99029249999998 Q93.83331000000001 -71.60945124999999 82.69303125 -82.70409624999999 Q71.5527525 -93.79890249999997 55.90811625 -93.79890249999997 Q40.26331875 -93.79890249999997 29.214146250000002 -82.70409624999999 Q18.165135 -71.60945124999999 18.165135 -55.99029249999998 Q18.165135 -46.678911249999985 22.49969625 -38.71767624999998 Q26.83441875 -30.756602499999985 34.549425 -25.709316249999986 Z"/></g><g id="Medium-L" transform="matrix(1 0 0 1 1674.31 1556)"><path d="M143.45283750000002 -47.98632624999999  139.512855 -56.58852999999999  130.87195125000002 -60.60591249999999  139.51043625 -64.58685249999999  143.45283750000002 -73.22533749999998  147.46296375 -64.57733875  156.07242374999998 -60.60591249999999  147.46296375 -56.59578624999999  143.45283750000002 -47.98632624999999 Z M122.9740875 -77.09195125  116.9833275 -89.91132625  104.12541375 -95.94062499999998  116.9833275 -101.96992374999999  122.9740875 -114.78945999999999  129.04208625 -101.96992374999999  141.86146125 -95.94062499999998  129.05176125 -89.90165124999999  122.9740875 -77.09195125 Z M57.143775 31.043750000000017 Q51.52824375 31.043750000000017 47.64147375 27.061681250000017 Q43.754865 23.079451250000016 43.754865 17.288480000000014 H70.60992375000001 Q70.60992375000001 23.079451250000016 66.6926775 27.061681250000017 Q62.77527 31.043750000000017 57.143775 31.043750000000017 Z M30.7706925 7.059586250000017 V-3.078201249999985 H83.55555749999999 V7.059586250000017 H30.7706925 Z M31.5769425 -13.14568374999999 Q20.66451 -20.233749999999986 14.244341250000002 -30.87705624999998 Q7.8241724999999995 -41.52036249999999 7.8241724999999995 -54.90588624999998 Q7.8241724999999995 -74.95442124999998 22.453256250000003 -89.59979124999998 Q37.08234 -104.24499999999998 57.1518375 -104.24499999999998 Q77.22117375 -104.24499999999998 91.86170625 -89.59979124999998 Q106.5020775 -74.95442124999998 106.5020775 -54.9060475 Q106.5020775 -41.53632624999999 100.16253375000001 -30.884957499999985 Q93.82298999999999 -20.233749999999986 82.7493075 -13.14568374999999 H31.5769425 Z M35.54853 -24.13180749999998 H78.9657375 Q86.60173125000001 -29.25326874999999 91.05884250000001 -37.36140249999998 Q95.516115 -45.469374999999985 95.516115 -54.89750124999999 Q95.516115 -70.71548125 84.24425625 -81.96798999999999 Q72.97255875 -93.2203375 57.143775 -93.2203375 Q41.31499125 -93.2203375 30.0818325 -81.96798999999999 Q18.84867375 -70.71548125 18.84867375 -54.89750124999999 Q18.84867375 -45.469374999999985 23.287402500000002 -37.356726249999994 Q27.726131249999998 -29.24407749999999 35.54853 -24.13180749999998 Z"/></g><g id="Regular-L" transform="matrix(1 0 0 1 1378.56 1556)"><path d="M143.02875 -49.25874999999999  139.32 -57.32124999999999  131.2575 -61.02999999999999  139.32 -64.73874999999998  143.02875 -72.80124999999998  146.7375 -64.73874999999998  154.8 -61.02999999999999  146.7375 -57.32124999999999  143.02875 -49.25874999999999 Z M122.55 -77.47749999999999  116.90625 -89.41  104.97375000000001 -95.05374999999998  116.90625 -100.69749999999999  122.55 -112.63  128.19375 -100.69749999999999  140.12625 -95.05374999999998  128.19375 -89.41  122.55 -77.47749999999999 Z M58.050000000000004 29.270000000000017 Q52.5675 29.270000000000017 48.778125 25.480625000000014 Q44.98875 21.691250000000014 44.98875 16.208750000000016 H71.11125 Q71.11125 21.691250000000014 67.321875 25.480625000000014 Q63.5325 29.270000000000017 58.050000000000004 29.270000000000017 Z M31.927500000000002 6.211250000000014 V-3.4637499999999832 H84.1725 V6.211250000000014 H31.927500000000002 Z M32.73375 -13.299999999999983 Q22.091250000000002 -20.233749999999986 15.883125 -30.63437499999999 Q9.675 -41.03499999999998 9.675 -54.09624999999998 Q9.675 -73.76874999999998 24.02625 -88.11999999999998 Q38.3775 -102.47125 58.050000000000004 -102.47125 Q77.7225 -102.47125 92.07375 -88.11999999999998 Q106.425 -73.76874999999998 106.425 -54.09624999999998 Q106.425 -41.03499999999998 100.2975 -30.63437499999999 Q94.17 -20.233749999999986 83.36625000000001 -13.299999999999983 H32.73375 Z M36.28125 -22.97499999999998 H79.98 Q87.72 -28.13499999999999 92.235 -36.358749999999986 Q96.75 -44.58249999999998 96.75 -54.09624999999998 Q96.75 -70.05999999999999 85.38187500000001 -81.428125 Q74.01375 -92.79624999999999 58.050000000000004 -92.79624999999999 Q42.08625 -92.79624999999999 30.718125 -81.428125 Q19.35 -70.05999999999999 19.35 -54.09624999999998 Q19.35 -44.58249999999998 23.865000000000002 -36.358749999999986 Q28.380000000000003 -28.13499999999999 36.28125 -22.97499999999998 Z"/></g><g id="Light-L" transform="matrix(1 0 0 1 1082.77 1556)"><path d="M142.71866625 -50.561327499999976  139.44400125 -57.75549624999998  132.2498325 -61.02999999999999  139.44400125 -64.30450375  142.71866625 -71.4986725  146.05525125 -64.30450375  153.18733875 -61.02999999999999  146.05525125 -57.75549624999998  142.71866625 -50.561327499999976 Z M122.55 -78.90407874999998  117.52641750000001 -89.53400124999999  106.83441375 -94.55758374999999  117.52641750000001 -99.581005  122.55 -110.27317  127.5735825 -99.581005  138.26558625 -94.55758374999999  127.5735825 -89.53400124999999  122.55 -78.90407874999998 Z M58.050000000000004 26.541005000000013 Q53.063666250000004 26.541005000000013 49.49133375 23.154755000000016 Q45.9191625 19.768505000000015 45.67099875 14.782171250000015 H70.42900125 Q70.18083750000001 19.768505000000015 66.60866625 23.154755000000016 Q63.036333750000004 26.541005000000013 58.050000000000004 26.541005000000013 Z M33.60208125 3.234091250000013 V-4.083917499999984 H82.49791875 V3.234091250000013 H33.60208125 Z M34.0363275 -15.470908749999992 Q24.26215875 -22.032493749999986 18.58116 -31.65782874999998 Q12.900161250000002 -41.283163749999986 12.900161250000002 -53.35191999999999 Q12.900161250000002 -71.84600499999999 26.22811875 -85.17380125 Q39.555915 -98.50175875 58.050000000000004 -98.50175875 Q76.54408500000001 -98.50175875 89.87188125 -85.17380125 Q103.19983875000001 -71.84600499999999 103.19983875000001 -53.35191999999999 Q103.19983875000001 -41.283163749999986 97.568505 -31.65782874999998 Q91.93717125 -22.032493749999986 82.06367250000001 -15.470908749999992 H34.0363275 Z M36.653415 -22.788917499999982 H79.54575375 Q87.1617525 -27.948917499999993 91.52179125 -35.98658499999999 Q95.88166875 -44.02425249999999 95.88166875 -53.35191999999999 Q95.88166875 -69.00558625 84.79266750000001 -80.09458749999999 Q73.70366625 -91.18358874999998 58.050000000000004 -91.18358874999998 Q42.396333750000004 -91.18358874999998 31.3073325 -80.09458749999999 Q20.218331250000002 -69.00558625 20.218331250000002 -53.35191999999999 Q20.218331250000002 -44.02425249999999 24.57820875 -35.98658499999999 Q28.9382475 -27.948917499999993 36.653415 -22.788917499999982 Z"/></g><g id="Thin-L" transform="matrix(1 0 0 1 787.282 1556)"><path d="M142.4085825 -51.86358249999999  139.5680025 -58.18958124999999  133.242165 -61.02999999999999  139.5680025 -63.870418749999985  142.4085825 -70.19641749999998  145.37316375 -63.870418749999985  151.57500000000002 -61.02999999999999  145.37316375 -58.18958124999999  142.4085825 -51.86358249999999 Z M122.55 -80.33033499999999  118.146585 -89.65800249999998  108.69491625 -94.06141749999998  118.146585 -98.4648325  122.55 -107.91650124999998  126.953415 -98.4648325  136.40508375000002 -94.06141749999998  126.953415 -89.65800249999998  122.55 -80.33033499999999 Z M58.050000000000004 23.812332500000014 Q53.5598325 23.812332500000014 50.2045425 20.829207500000013 Q46.849252500000006 17.846082500000016 46.353086250000004 13.355915000000014 H69.74691375 Q69.2507475 17.846082500000016 65.8954575 20.829207500000013 Q62.5401675 23.812332500000014 58.050000000000004 23.812332500000014 Z M35.27650125 0.2574162500000128 V-4.704084999999985 H80.82349875 V0.2574162500000128 H35.27650125 Z M35.3385825 -17.641333749999987 Q26.432583750000003 -23.83091499999999 21.278711250000004 -32.680959999999985 Q16.125 -41.531166249999984 16.125 -52.60775124999999 Q16.125 -69.92358249999998 28.429665 -82.22824749999998 Q40.73416875 -94.53291249999998 58.050000000000004 -94.53291249999998 Q75.36583125 -94.53291249999998 87.67049625 -82.22824749999998 Q99.97500000000001 -69.92358249999998 99.97500000000001 -52.60775124999999 Q99.97500000000001 -41.531166249999984 94.8398325 -32.680959999999985 Q89.704665 -23.83091499999999 80.76141750000001 -17.641333749999987 H35.3385825 Z M37.02541875 -22.602834999999985 H79.11166875 Q86.60366625 -27.76283499999998 90.8085825 -35.614581249999986 Q95.01349875 -43.466166249999986 95.01349875 -52.60775124999999 Q95.01349875 -67.95133374999999 84.20346 -78.76137249999998 Q73.39358250000001 -89.57124999999999 58.050000000000004 -89.57124999999999 Q42.7064175 -89.57124999999999 31.896539999999998 -78.76137249999998 Q21.08650125 -67.95133374999999 21.08650125 -52.60775124999999 Q21.08650125 -43.466166249999986 25.2914175 -35.614581249999986 Q29.49633375 -27.76283499999998 37.02541875 -22.602834999999985 Z"/></g><g id="Ultralight-L" transform="matrix(1 0 0 1 491.205 1556)"><path d="M142.2225 -52.64499999999998  139.6425 -58.44999999999999  133.8375 -61.02999999999999  139.6425 -63.609999999999985  142.2225 -69.41499999999999  144.96375 -63.609999999999985  150.60750000000002 -61.02999999999999  144.96375 -58.44999999999999  142.2225 -52.64499999999998 Z M122.55 -81.18624999999999  118.51875 -89.73249999999999  109.81125 -93.76374999999999  118.51875 -97.79499999999999  122.55 -106.5025  126.58125 -97.79499999999999  135.28875 -93.76374999999999  126.58125 -89.73249999999999  122.55 -81.18624999999999 Z M58.050000000000004 22.175000000000015 Q53.8575 22.175000000000015 50.6325 19.433750000000014 Q47.4075 16.692500000000017 46.7625 12.500000000000014 H69.3375 Q68.6925 16.692500000000017 65.4675 19.433750000000014 Q62.2425 22.175000000000015 58.050000000000004 22.175000000000015 Z M36.28125 -1.528749999999988 V-5.0762499999999875 H79.81875000000001 V-1.528749999999988 H36.28125 Z M36.120000000000005 -18.943749999999987 Q27.735 -24.909999999999982 22.8975 -33.29499999999999 Q18.060000000000002 -41.67999999999999 18.060000000000002 -52.16124999999998 Q18.060000000000002 -68.76999999999998 29.750625 -80.460625 Q41.441250000000004 -92.15124999999998 58.050000000000004 -92.15124999999998 Q74.65875 -92.15124999999998 86.34937500000001 -80.460625 Q98.04 -68.76999999999998 98.04 -52.16124999999998 Q98.04 -41.67999999999999 93.2025 -33.29499999999999 Q88.36500000000001 -24.909999999999982 79.98 -18.943749999999987 H36.120000000000005 Z M37.24875 -22.49124999999998 H78.85125000000001 Q86.26875 -27.65124999999999 90.38062500000001 -35.391249999999985 Q94.4925 -43.13124999999998 94.4925 -52.16124999999998 Q94.4925 -67.31874999999998 83.85000000000001 -77.96124999999999 Q73.2075 -88.60374999999999 58.050000000000004 -88.60374999999999 Q42.8925 -88.60374999999999 32.25 -77.96124999999999 Q21.6075 -67.31874999999998 21.6075 -52.16124999999998 Q21.6075 -43.13124999999998 25.719375 -35.391249999999985 Q29.83125 -27.65124999999999 37.24875 -22.49124999999998 Z"/></g><g id="Bold-M" transform="matrix(1 0 0 1 2281.8 1126)"><path d="M111.875 -39.72999999999999  107.625 -48.97999999999999  98.25 -53.35499999999999  107.61725 -57.61274999999999  111.875 -66.97999999999999  116.25 -57.60499999999999  125.5 -53.35499999999999  116.25 -48.97999999999999  111.875 -39.72999999999999 Z M96.875 -63.47999999999999  90.5 -77.60499999999999  76.375 -84.10499999999999  90.5 -90.47999999999999  96.875 -104.60499999999999  103.375 -90.47999999999999  117.5 -84.10499999999999  103.40625 -77.57374999999999  96.875 -63.47999999999999 Z M41.125 22.39500000000001 Q36.38125 22.39500000000001 33.003125 18.64500000000001 Q29.625 14.89500000000001 29.625 9.39500000000001 H52.75 Q52.75 14.89500000000001 49.335125 18.64500000000001 Q45.92025 22.39500000000001 41.125 22.39500000000001 Z M20.0 3.3950000000000102 V-8.47999999999999 H62.375 V3.3950000000000102 H20.0 Z M21.25 -14.47999999999999 Q11.5 -20.35499999999999 5.5 -30.04249999999999 Q-0.5 -39.72999999999999 -0.5 -51.22999999999999 Q-0.5 -68.57374999999999 11.647125 -80.71437499999999 Q23.794125 -92.85499999999999 41.147 -92.85499999999999 Q58.5 -92.85499999999999 70.6875 -80.71437499999999 Q82.875 -68.57374999999999 82.875 -51.22999999999999 Q82.875 -39.60499999999999 76.875 -29.97999999999999 Q70.875 -20.35499999999999 61.125 -14.47999999999999 H21.25 Z M26.0 -30.22999999999999 H56.375 Q61.625 -33.97999999999999 64.375 -39.35499999999999 Q67.125 -44.72999999999999 67.125 -51.20262499999998 Q67.125 -62.22999999999999 59.625 -69.66749999999999 Q52.125 -77.10499999999999 41.125 -77.10499999999999 Q30.125 -77.10499999999999 22.6875 -69.66749999999999 Q15.25 -62.22999999999999 15.25 -51.20262499999998 Q15.25 -44.72999999999999 18.0 -39.35499999999999 Q20.75 -33.97999999999999 26.0 -30.22999999999999 Z"/></g><g id="Semibold-M" transform="matrix(1 0 0 1 1985.97 1126)"><path d="M111.059875 -42.12112499999999  107.298875 -50.33862499999999  99.010875 -54.170124999999985  107.2945 -57.93549999999999  111.059875 -66.21912499999999  114.891375 -57.931124999999994  123.108875 -54.170124999999985  114.891375 -50.33862499999999  111.059875 -42.12112499999999 Z M96.059875 -64.24087499999999  90.39125 -76.681125  77.951 -82.42037499999999  90.39125 -88.08887499999999  96.059875 -100.52874999999999  101.799 -88.08887499999999  114.239375 -82.42037499999999  101.816625 -76.66349999999998  96.059875 -64.24087499999999 Z M42.809625 19.08000000000001 Q38.334875 19.08000000000001 35.148375 15.68325000000001 Q31.96175 12.28650000000001 31.96175 7.384250000000009 H53.72825 Q53.72825 12.28650000000001 50.520875 15.68325000000001 Q47.3135 19.08000000000001 42.809625 19.08000000000001 Z M22.17375 1.8190000000000097 V-9.240874999999988 H63.51625 V1.8190000000000097 H22.17375 Z M23.42375 -14.806124999999987 Q14.162875 -20.35499999999999 8.5705 -29.58062499999999 Q2.978 -38.80612499999999 2.978 -49.70837499999999 Q2.978 -66.304875 14.59925 -77.92249999999999 Q26.220375 -89.53999999999999 42.822125 -89.53999999999999 Q59.423875 -89.53999999999999 71.067875 -77.92249999999999 Q82.712 -66.304875 82.712 -49.70837499999999 Q82.712 -38.73549999999999 77.1195 -29.54524999999999 Q71.527125 -20.35499999999999 62.26625 -14.806124999999987 H23.42375 Z M27.413 -28.05624999999999 H58.277 Q63.690125 -31.914874999999988 66.576 -37.50724999999999 Q69.46175 -43.09962499999999 69.46175 -49.69287499999999 Q69.46175 -60.925749999999994 61.744375 -68.60775 Q54.027 -76.289875 42.809625 -76.289875 Q31.59225 -76.289875 23.91025 -68.60775 Q16.22825 -60.925749999999994 16.22825 -49.69287499999999 Q16.22825 -43.09962499999999 19.114 -37.50724999999999 Q21.999875 -31.914874999999988 27.413 -28.05624999999999 Z"/></g><g id="Medium-M" transform="matrix(1 0 0 1 1689.91 1126)"><path d="M110.448375 -43.914749999999984  107.054375 -51.357749999999996  99.5815 -54.78162499999999  107.0525 -58.177499999999995  110.448375 -65.64849999999998  113.87225 -58.175625  121.31525 -54.78162499999999  113.87225 -51.357749999999996  110.448375 -43.914749999999984 Z M95.448375 -64.8115  90.30975 -75.988125  79.133125 -81.15662499999999  90.30975 -86.29525  95.448375 -97.47187499999998  100.616875 -86.29525  111.7935 -81.15662499999999  100.624375 -75.98062499999999  95.448375 -64.8115 Z M44.073375 16.59337500000001 Q39.800375 16.59337500000001 36.7575 13.46162500000001 Q33.714625 10.32987500000001 33.714625 5.876000000000012 H54.462 Q54.462 10.32987500000001 51.41025 13.46162500000001 Q48.358625 16.59337500000001 44.073375 16.59337500000001 Z M23.804375 0.6368750000000105 V-9.811499999999988 H64.37225 V0.6368750000000105 H23.804375 Z M25.054375 -15.05062499999999 Q16.16025 -20.35499999999999 10.873625 -29.23412499999999 Q5.586875 -38.11312499999999 5.586875 -48.56699999999999 Q5.586875 -64.603 16.813625 -75.82824999999998 Q28.040375 -87.05337499999999 44.078625 -87.05337499999999 Q60.116875 -87.05337499999999 71.35325 -75.82824999999998 Q82.589625 -64.603 82.589625 -48.56699999999999 Q82.589625 -38.08324999999999 77.303 -29.21912499999999 Q72.01625 -20.35499999999999 63.12225 -15.05062499999999 H25.054375 Z M28.47275 -26.42562499999999 H59.70375 Q65.239125 -30.36587499999999 68.226875 -36.121374999999986 Q71.214625 -41.87674999999999 71.214625 -48.56037499999999 Q71.214625 -59.947374999999994 63.33425 -67.81287499999999 Q55.45375 -75.67837499999999 44.073375 -75.67837499999999 Q32.692875 -75.67837499999999 24.827375 -67.81287499999999 Q16.962 -59.947374999999994 16.962 -48.56037499999999 Q16.962 -41.87674999999999 19.94975 -36.121374999999986 Q22.9375 -30.36587499999999 28.47275 -26.42562499999999 Z"/></g><g id="Regular-M" transform="matrix(1 0 0 1 1394.06 1126)"><path d="M110.0 -45.22999999999999  106.875 -52.10499999999999  100.0 -55.22999999999999  106.875 -58.35499999999999  110.0 -65.22999999999999  113.125 -58.35499999999999  120.0 -55.22999999999999  113.125 -52.10499999999999  110.0 -45.22999999999999 Z M95.0 -65.22999999999999  90.25 -75.47999999999999  80.0 -80.22999999999999  90.25 -84.97999999999999  95.0 -95.22999999999999  99.75 -84.97999999999999  110.0 -80.22999999999999  99.75 -75.47999999999999  95.0 -65.22999999999999 Z M45.0 14.77000000000001 Q40.875 14.77000000000001 37.9375 11.83250000000001 Q35.0 8.89500000000001 35.0 4.77000000000001 H55.0 Q55.0 8.89500000000001 52.0625 11.83250000000001 Q49.125 14.77000000000001 45.0 14.77000000000001 Z M25.0 -0.22999999999998977 V-10.22999999999999 H65.0 V-0.22999999999998977 H25.0 Z M26.25 -15.22999999999999 Q17.625 -20.35499999999999 12.5625 -28.97999999999999 Q7.5 -37.60499999999999 7.5 -47.72999999999999 Q7.5 -63.35499999999999 18.4375 -74.29249999999999 Q29.375 -85.22999999999999 45.0 -85.22999999999999 Q60.625 -85.22999999999999 71.5625 -74.29249999999999 Q82.5 -63.35499999999999 82.5 -47.72999999999999 Q82.5 -37.60499999999999 77.4375 -28.97999999999999 Q72.375 -20.35499999999999 63.75 -15.22999999999999 H26.25 Z M29.25 -25.22999999999999 H60.75 Q66.375 -29.22999999999999 69.4375 -35.10499999999999 Q72.5 -40.97999999999999 72.5 -47.72999999999999 Q72.5 -59.22999999999999 64.5 -67.22999999999999 Q56.5 -75.22999999999999 45.0 -75.22999999999999 Q33.5 -75.22999999999999 25.5 -67.22999999999999 Q17.5 -59.22999999999999 17.5 -47.72999999999999 Q17.5 -40.97999999999999 20.5625 -35.10499999999999 Q23.625 -29.22999999999999 29.25 -25.22999999999999 Z"/></g><g id="Light-M" transform="matrix(1 0 0 1 1098.18 1126)"><path d="M110.0 -46.48012499999999  107.259625 -52.48962499999999  101.250125 -55.22999999999999  107.259625 -57.97037499999999  110.0 -63.97987499999999  112.740375 -57.97037499999999  118.749875 -55.22999999999999  112.740375 -52.48962499999999  110.0 -46.48012499999999 Z M95.0 -67.05699999999999  90.827 -76.05699999999999  81.827 -80.22999999999999  90.827 -84.40299999999999  95.0 -93.40299999999999  99.173 -84.40299999999999  108.173 -80.22999999999999  99.173 -76.05699999999999  95.0 -67.05699999999999 Z M45.0 12.65450000000001 Q41.211625 12.65450000000001 38.466375 10.02950000000001 Q35.72125 7.404500000000009 35.48075 3.616125000000011 H54.51925 Q54.27875 7.404500000000009 51.533625 10.02950000000001 Q48.788375 12.65450000000001 45.0 12.65450000000001 Z M26.250125 -3.3071249999999885 V-10.806999999999988 H63.749875 V-3.3071249999999885 H26.250125 Z M27.01925 -17.730124999999987 Q19.163625 -22.614749999999987 14.581875 -30.494499999999988 Q10.000125 -38.37424999999999 10.000125 -47.72999999999999 Q10.000125 -62.34524999999999 20.192375 -72.53762499999999 Q30.38475 -82.72987499999999 45.0 -82.72987499999999 Q59.61525 -82.72987499999999 69.807625 -72.53762499999999 Q79.999875 -62.34524999999999 79.999875 -47.72999999999999 Q79.999875 -38.37424999999999 75.418125 -30.494499999999988 Q70.836375 -22.614749999999987 62.98075 -17.730124999999987 H27.01925 Z M29.25 -25.22999999999999 H60.75 Q66.375 -29.22999999999999 69.4375 -35.10499999999999 Q72.5 -40.97999999999999 72.5 -47.72999999999999 Q72.5 -59.22999999999999 64.5 -67.22999999999999 Q56.5 -75.22999999999999 45.0 -75.22999999999999 Q33.5 -75.22999999999999 25.5 -67.22999999999999 Q17.5 -59.22999999999999 17.5 -47.72999999999999 Q17.5 -40.97999999999999 20.5625 -35.10499999999999 Q23.625 -29.22999999999999 29.25 -25.22999999999999 Z"/></g><g id="Thin-M" transform="matrix(1 0 0 1 802.565 1126)"><path d="M110.0 -47.72999999999999  107.64425 -52.87424999999999  102.5 -55.22999999999999  107.64425 -57.58574999999999  110.0 -62.72999999999999  112.35575 -57.58574999999999  117.5 -55.22999999999999  112.35575 -52.87424999999999  110.0 -47.72999999999999 Z M95.0 -68.88387499999999  91.403875 -76.63387499999999  83.653875 -80.22999999999999  91.403875 -83.82612499999999  95.0 -91.57612499999999  98.596125 -83.82612499999999  106.346125 -80.22999999999999  98.596125 -76.63387499999999  95.0 -68.88387499999999 Z M45.0 10.53925000000001 Q41.548125 10.53925000000001 38.995125 8.22675000000001 Q36.44225 5.91425000000001 35.9615 2.4623750000000086 H54.0385 Q53.55775 5.91425000000001 51.004875 8.22675000000001 Q48.451875 10.53925000000001 45.0 10.53925000000001 Z M27.5 -6.3837499999999885 V-11.383874999999989 H62.5 V-6.3837499999999885 H27.5 Z M27.7885 -20.22999999999999 Q20.701875 -24.87424999999999 16.600875 -32.00887499999999 Q12.5 -39.14349999999999 12.5 -47.72999999999999 Q12.5 -61.33574999999999 21.947125 -70.78287499999999 Q31.39425 -80.22999999999999 45.0 -80.22999999999999 Q58.60575 -80.22999999999999 68.052875 -70.78287499999999 Q77.5 -61.33574999999999 77.5 -47.72999999999999 Q77.5 -39.14349999999999 73.399125 -32.00887499999999 Q69.298125 -24.87424999999999 62.2115 -20.22999999999999 H27.7885 Z M29.25 -25.22999999999999 H60.75 Q66.375 -29.22999999999999 69.4375 -35.10499999999999 Q72.5 -40.97999999999999 72.5 -47.72999999999999 Q72.5 -59.22999999999999 64.5 -67.22999999999999 Q56.5 -75.22999999999999 45.0 -75.22999999999999 Q33.5 -75.22999999999999 25.5 -67.22999999999999 Q17.5 -59.22999999999999 17.5 -47.72999999999999 Q17.5 -40.97999999999999 20.5625 -35.10499999999999 Q23.625 -29.22999999999999 29.25 -25.22999999999999 Z"/></g><g id="Ultralight-M" transform="matrix(1 0 0 1 506.415 1126)"><path d="M110.0 -48.47999999999999  107.875 -53.10499999999999  103.25 -55.22999999999999  107.875 -57.35499999999999  110.0 -61.97999999999999  112.125 -57.35499999999999  116.75 -55.22999999999999  112.125 -53.10499999999999  110.0 -48.47999999999999 Z M95.0 -69.97999999999999  91.75 -76.97999999999999  84.75 -80.22999999999999  91.75 -83.47999999999999  95.0 -90.47999999999999  98.25 -83.47999999999999  105.25 -80.22999999999999  98.25 -76.97999999999999  95.0 -69.97999999999999 Z M45.0 9.27000000000001 Q41.75 9.27000000000001 39.3125 7.14500000000001 Q36.875 5.02000000000001 36.25 1.7700000000000102 H53.75 Q53.125 5.02000000000001 50.6875 7.14500000000001 Q48.25 9.27000000000001 45.0 9.27000000000001 Z M28.25 -8.22999999999999 V-11.72999999999999 H61.75 V-8.22999999999999 H28.25 Z M28.25 -21.72999999999999 Q21.625 -26.22999999999999 17.8125 -32.91749999999999 Q14.0 -39.60499999999999 14.0 -47.72999999999999 Q14.0 -60.72999999999999 23.0 -69.72999999999999 Q32.0 -78.72999999999999 45.0 -78.72999999999999 Q58.0 -78.72999999999999 67.0 -69.72999999999999 Q76.0 -60.72999999999999 76.0 -47.72999999999999 Q76.0 -39.60499999999999 72.1875 -32.91749999999999 Q68.375 -26.22999999999999 61.75 -21.72999999999999 H28.25 Z M29.25 -25.22999999999999 H60.75 Q66.375 -29.22999999999999 69.4375 -35.10499999999999 Q72.5 -40.97999999999999 72.5 -47.72999999999999 Q72.5 -59.22999999999999 64.5 -67.22999999999999 Q56.5 -75.22999999999999 45.0 -75.22999999999999 Q33.5 -75.22999999999999 25.5 -67.22999999999999 Q17.5 -59.22999999999999 17.5 -47.72999999999999 Q17.5 -40.97999999999999 20.5625 -35.10499999999999 Q23.625 -29.22999999999999 29.25 -25.22999999999999 Z"/></g><g id="Bold-S" transform="matrix(1 0 0 1 2294.23 696)"><path d="M89.058375 -40.358499999999985  85.902375 -47.06499999999999  79.09725 -50.31962499999999  85.89626025 -53.48173974999999  89.058375 -60.28074999999998  92.313 -53.475624999999994  99.01950000000001 -50.31962499999999  92.313 -47.06499999999999  89.058375 -40.358499999999985 Z M74.856375 -57.519249999999985  69.92512500000001 -68.76249999999999  58.681875000000005 -73.79237499999999  69.92512500000001 -78.72362499999998  74.856375 -89.96687499999999  79.88625 -78.72362499999998  91.12950000000001 -73.79237499999999  79.91090625 -68.73784375  74.856375 -57.519249999999985 Z M32.426716500000005 8.658125000000013 Q29.000681250000003 8.658125000000013 26.581903125 5.931143750000014 Q24.163125 3.204162500000013 24.163125 -0.8098749999999875 H40.83075 Q40.83075 3.233750000000013 38.362067625 5.945937500000014 Q35.89338525 8.658125000000013 32.426716500000005 8.658125000000013 Z M17.358 -6.332874999999987 V-14.913249999999987 H47.635875 V-6.332874999999987 H17.358 Z M15.878625000000001 -20.436249999999987 Q9.073500000000001 -24.874374999999986 4.93125 -32.02468749999999 Q0.789 -39.17499999999999 0.789 -47.45949999999999 Q0.789 -60.650593749999985 10.0277955 -69.88435937499999 Q19.266689625 -79.11812499999999 32.464983000000004 -79.11812499999999 Q45.663375 -79.11812499999999 54.934125 -69.88435937499999 Q64.204875 -60.650593749999985 64.204875 -47.45949999999999 Q64.204875 -39.07637499999999 60.062625000000004 -31.975374999999985 Q55.920375 -24.874374999999986 49.11525 -20.436249999999987 H15.878625000000001 Z M19.52775 -32.07399999999999 H45.3675 Q48.819375 -35.032749999999986 50.69325 -38.977749999999986 Q52.567125000000004 -42.922749999999986 52.567125000000004 -47.43790112499998 Q52.567125000000004 -55.973500374999986 46.771032375000004 -61.726986999999994 Q40.97493975 -67.480375 32.470407375 -67.480375 Q23.965875 -67.480375 18.1963125 -61.726986999999994 Q12.42675 -55.973500374999986 12.42675 -47.43790112499998 Q12.42675 -42.82412499999999 14.251312500000001 -38.92843749999999 Q16.075875 -35.032749999999986 19.52775 -32.07399999999999 Z"/></g><g id="Semibold-S" transform="matrix(1 0 0 1 1998.1 696)"><path d="M88.41524137500001 -42.24509762499999  85.645062375 -48.13695512499999  79.697580375 -50.962758624999985  85.6416105 -53.73638949999999  88.41524137500001 -59.680419624999985  91.241044875 -53.73293762499999  97.132902375 -50.962758624999985  91.241044875 -48.13695512499999  88.41524137500001 -42.24509762499999 Z M74.21324137500001 -58.119580374999984  69.83932125 -68.03356262499999  59.925338999999994 -72.46320587499999  69.83932125 -76.83702737499999  74.21324137500001 -86.75071374999999  78.64278600000002 -76.83702737499999  88.556866875 -72.46320587499999  78.656692125 -68.01965649999998  74.21324137500001 -58.119580374999984 Z M33.755885625 6.042590000000013 Q30.542091375 6.042590000000013 28.274505375000004 3.5943230000000135 Q26.006820750000003 1.1460560000000122 26.006820750000003 -2.3963567499999883 H41.60258925 Q41.60258925 1.1756435000000138 39.297624375 3.6091167500000125 Q36.9926595 6.042590000000013 33.755885625 6.042590000000013 Z M19.07308875 -7.576338999999987 V-15.513580374999986 H48.53632125 V-7.576338999999987 H19.07308875 Z M17.59371375 -20.693562624999984 Q11.174508375 -24.874374999999986 7.3538745 -31.660268124999988 Q3.533142 -38.44606262499999 3.533142 -46.25893787499999 Q3.533142 -58.860451375 12.35712075 -67.68156999999998 Q21.181000875000002 -76.50259 33.786656625 -76.50259 Q46.392312375 -76.50259 55.234240875000005 -67.68156999999998 Q64.076268 -58.860451375 64.076268 -46.25893787499999 Q64.076268 -38.39033949999999 60.25553550000001 -31.632357249999984 Q56.434901625 -24.874374999999986 50.015696250000005 -20.693562624999984 H17.59371375 Z M20.642607 -30.35891124999999 H46.868178 Q50.448758625 -33.40336637499999 52.429838999999994 -37.51987524999999 Q54.41082075 -41.636384124999985 54.41082075 -46.24670837499998 Q54.41082075 -54.944447124999996 48.44321925 -60.89084424999999 Q42.475617750000005 -66.83724137499999 33.7995765 -66.83724137499999 Q25.12353525 -66.83724137499999 19.16106225 -60.89084424999999 Q13.19858925 -54.944447124999996 13.19858925 -46.24670837499998 Q13.19858925 -41.53775912499999 15.130258500000002 -37.47056274999999 Q17.062026375 -33.40336637499999 20.642607 -30.35891124999999 Z"/></g><g id="Medium-S" transform="matrix(1 0 0 1 1701.85 696)"><path d="M87.932767875 -43.66026774999998  85.452151875 -48.941044749999996  80.14780350000001 -51.44523212499999  85.4506725 -53.92732749999999  87.932767875 -59.23019649999999  90.43695525 -53.925848125  95.71773225000001 -51.44523212499999  90.43695525 -48.941044749999996  87.932767875 -43.66026774999998 Z M73.730767875 -58.56980349999999  69.77501775 -67.486785625  60.85803562500001 -71.466107125  69.77501775 -75.42185724999999  73.730767875 -84.33883937499999  77.710089375 -75.42185724999999  86.6270715 -71.466107125  77.716006875 -67.48086812499999  73.730767875 -58.56980349999999 Z M34.752885750000004 4.080642875000013 Q31.698370875000002 4.080642875000013 29.544105000000002 1.8414608750000134 Q27.389839124999998 -0.39772112499998613 27.389839124999998 -3.5863659999999857 H42.181518000000004 Q42.181518000000004 -0.36813362499998625 39.99934125 1.8562546250000125 Q37.817164500000004 4.080642875000013 34.752885750000004 4.080642875000013 Z M20.359651875 -8.509035624999989 V-15.963803499999987 H49.21170525 V-8.509035624999989 H20.359651875 Z M18.880276875 -20.886473124999988 Q12.750437250000001 -24.874374999999986 9.171040125000001 -31.38687962499999 Q5.591544375000001 -37.89928562499999 5.591544375000001 -45.35839299999999 Q5.591544375000001 -57.51767199999999 14.104262624999999 -66.02920674999999 Q22.616980875000003 -74.54064287499999 34.778035125 -74.54064287499999 Q46.939089375 -74.54064287499999 55.459401750000005 -66.02920674999999 Q63.979714125 -57.51767199999999 63.979714125 -45.35839299999999 Q63.979714125 -37.87571424999999 60.400317 -31.375044624999987 Q56.82082125 -24.874374999999986 50.69108025 -20.886473124999988 H18.880276875 Z M21.478749750000002 -29.07234812499999 H47.99388375 Q51.670919625 -32.18120537499999 53.73237937500001 -36.426419874999986 Q55.793839125 -40.67153574999999 55.793839125 -45.353165874999995 Q55.793839125 -54.172607875 49.697532 -60.26368787499999 Q43.6013235 -66.354767875 34.79667525 -66.354767875 Q25.991928375 -66.354767875 19.884673875 -60.26368787499999 Q13.777518 -54.172607875 13.777518 -45.353165874999995 Q13.777518 -40.572910749999984 15.789665250000002 -36.37710737499999 Q17.8018125 -32.18120537499999 21.478749750000002 -29.07234812499999 Z"/></g><g id="Regular-S" transform="matrix(1 0 0 1 1405.73 696)"><path d="M87.57900000000001 -44.697999999999986  85.310625 -49.530624999999986  80.47800000000001 -51.79899999999999  85.310625 -54.067374999999984  87.57900000000001 -58.89999999999999  89.847375 -54.067374999999984  94.68 -51.79899999999999  89.847375 -49.530624999999986  87.57900000000001 -44.697999999999986 Z M73.37700000000001 -58.89999999999999  69.727875 -67.08587499999999  61.542 -70.73499999999999  69.727875 -74.38412499999998  73.37700000000001 -82.57  77.02612500000001 -74.38412499999998  85.212 -70.73499999999999  77.02612500000001 -67.08587499999999  73.37700000000001 -58.89999999999999 Z M35.484091500000005 2.6420000000000137 Q32.54625 2.6420000000000137 30.475125000000002 0.5560812500000125 Q28.404 -1.5298374999999886 28.404 -4.458999999999985 H42.606 Q42.606 -1.500249999999987 40.5139665 0.5708750000000133 Q38.421834375 2.6420000000000137 35.484091500000005 2.6420000000000137 Z M21.303 -9.192999999999987 V-16.293999999999986 H49.707 V-9.192999999999987 H21.303 Z M19.823625 -21.027999999999984 Q13.906125000000001 -24.874374999999986 10.503562500000001 -31.18637499999999 Q7.101 -37.49837499999999 7.101 -44.697999999999986 Q7.101 -56.53299999999999 15.3855 -64.8175 Q23.67 -73.10199999999999 35.505 -73.10199999999999 Q47.34 -73.10199999999999 55.624500000000005 -64.8175 Q63.909000000000006 -56.53299999999999 63.909000000000006 -44.697999999999986 Q63.909000000000006 -37.49837499999999 60.506437500000004 -31.18637499999999 Q57.103875 -24.874374999999986 51.186375000000005 -21.027999999999984 H19.823625 Z M22.092000000000002 -28.12899999999999 H48.819375 Q52.567125000000004 -31.28499999999999 54.687562500000006 -35.62449999999999 Q56.808 -39.96399999999999 56.808 -44.697999999999986 Q56.808 -53.606500374999996 50.617407375 -59.80379949999998 Q44.42681475 -66.00099999999999 35.527782375 -66.00099999999999 Q26.62875 -66.00099999999999 20.415375 -59.80379949999998 Q14.202 -53.606500374999996 14.202 -44.697999999999986 Q14.202 -39.865374999999986 16.273125 -35.57518749999999 Q18.344250000000002 -31.28499999999999 22.092000000000002 -28.12899999999999 Z"/></g><g id="Light-S" transform="matrix(1 0 0 1 1109.75 696)"><path d="M87.57900000000001 -45.684348624999984  85.61409412500001 -49.834094124999986  81.464348625 -51.79899999999999  85.61409412500001 -53.76390587499999  87.57900000000001 -57.913651374999986  89.54390587500001 -53.76390587499999  93.693651375 -51.79899999999999  89.54390587500001 -49.834094124999986  87.57900000000001 -45.684348624999984 Z M73.37700000000001 -60.34150299999999  70.183128 -67.54112799999999  62.983503 -70.73499999999999  70.183128 -73.928872  73.37700000000001 -81.128497  76.57087200000001 -73.928872  83.770497 -70.73499999999999  76.57087200000001 -67.54112799999999  73.37700000000001 -60.34150299999999 Z M35.484091500000005 0.9728705000000133 Q32.811847125 0.9728705000000133 30.892407375 -0.8664857499999883 Q28.97306625 -2.7058419999999863 28.783311750000003 -5.369407374999987 H42.22668825 Q42.03693375 -2.676254499999988 40.096684125 -0.8516919999999875 Q38.156335874999996 0.9728705000000133 35.484091500000005 0.9728705000000133 Z M22.289348625000002 -11.620851624999986 V-16.749252999999985 H48.720651375 V-11.620851624999986 H22.289348625000002 Z M20.430563250000002 -23.000598624999988 Q15.120100125 -26.657317749999983 12.096849375000001 -32.381315499999985 Q9.073598625 -38.10531324999999 9.073598625 -44.697999999999986 Q9.073598625 -55.736307249999996 16.770096374999998 -63.432903624999994 Q24.46669275 -71.12940137499999 35.505 -71.12940137499999 Q46.543307250000005 -71.12940137499999 54.239903625000004 -63.432903624999994 Q61.936401375 -55.736307249999996 61.936401375 -44.697999999999986 Q61.936401375 -38.10531324999999 58.91315062500001 -32.381315499999985 Q55.889899875000005 -26.657317749999983 50.57943675 -23.000598624999988 H20.430563250000002 Z M22.092000000000002 -28.12899999999999 H48.819375 Q52.567125000000004 -31.28499999999999 54.687562500000006 -35.62449999999999 Q56.808 -39.96399999999999 56.808 -44.697999999999986 Q56.808 -53.606500374999996 50.617407375 -59.80379949999998 Q44.42681475 -66.00099999999999 35.527782375 -66.00099999999999 Q26.62875 -66.00099999999999 20.415375 -59.80379949999998 Q14.202 -53.606500374999996 14.202 -44.697999999999986 Q14.202 -39.865374999999986 16.273125 -35.57518749999999 Q18.344250000000002 -31.28499999999999 22.092000000000002 -28.12899999999999 Z"/></g><g id="Thin-S" transform="matrix(1 0 0 1 814.015 696)"><path d="M87.57900000000001 -46.67049999999999  85.91756325 -50.137563249999985  82.4505 -51.79899999999999  85.91756325 -53.460436749999985  87.57900000000001 -56.927499999999995  89.24043675 -53.460436749999985  92.70750000000001 -51.79899999999999  89.24043675 -50.137563249999985  87.57900000000001 -46.67049999999999 Z M73.37700000000001 -61.78290737499999  70.638282375 -67.99628237499999  64.424907375 -70.73499999999999  70.638282375 -73.47371762499999  73.37700000000001 -79.68709262499999  76.115717625 -73.47371762499999  82.329092625 -70.73499999999999  76.115717625 -67.99628237499999  73.37700000000001 -61.78290737499999 Z M35.484091500000005 -0.6960617499999877 Q33.077345625 -0.6960617499999877 31.309591125000004 -2.288855499999988 Q29.54193525 -3.8816492499999864 29.162623500000002 -6.2797161249999895 H41.8473765 Q41.46806475 -3.8520617499999883 39.679401750000004 -2.274061749999987 Q37.890837375 -0.6960617499999877 35.484091500000005 -0.6960617499999877 Z M23.2755 -14.04830874999999 V-17.204407374999988 H47.734500000000004 V-14.04830874999999 H23.2755 Z M21.0375015 -24.972999999999985 Q16.333779375000002 -28.440063249999987 13.689840375 -33.57615737499999 Q11.046000000000001 -38.71225149999999 11.046000000000001 -44.697999999999986 Q11.046000000000001 -54.93981174999999 18.154594125 -62.048405874999986 Q25.263188250000002 -69.157 35.505 -69.157 Q45.74681175 -69.157 52.855405875 -62.048405874999986 Q59.964000000000006 -54.93981174999999 59.964000000000006 -44.697999999999986 Q59.964000000000006 -38.71225149999999 57.320159625 -33.57615737499999 Q54.676220625 -28.440063249999987 49.9724985 -24.972999999999985 H21.0375015 Z M22.092000000000002 -28.12899999999999 H48.819375 Q52.567125000000004 -31.28499999999999 54.687562500000006 -35.62449999999999 Q56.808 -39.96399999999999 56.808 -44.697999999999986 Q56.808 -53.606500374999996 50.617407375 -59.80379949999998 Q44.42681475 -66.00099999999999 35.527782375 -66.00099999999999 Q26.62875 -66.00099999999999 20.415375 -59.80379949999998 Q14.202 -53.606500374999996 14.202 -44.697999999999986 Q14.202 -39.865374999999986 16.273125 -35.57518749999999 Q18.344250000000002 -31.28499999999999 22.092000000000002 -28.12899999999999 Z"/></g><g id="Ultralight-S" transform="matrix(1 0 0 1 517.792 696)"><path d="M87.57900000000001 -47.26224999999999  86.099625 -50.31962499999999  83.04225000000001 -51.79899999999999  86.099625 -53.27837499999998  87.57900000000001 -56.33574999999999  89.058375 -53.27837499999998  92.11575 -51.79899999999999  89.058375 -50.31962499999999  87.57900000000001 -47.26224999999999 Z M73.37700000000001 -62.64774999999999  70.911375 -68.269375  65.28975 -70.73499999999999  70.911375 -73.20062499999999  73.37700000000001 -78.82225  75.842625 -73.20062499999999  81.46425 -70.73499999999999  75.842625 -68.269375  73.37700000000001 -62.64774999999999 Z M35.484091500000005 -1.6974999999999874 Q33.236625000000004 -1.6974999999999874 31.560000000000002 -3.142356249999988 Q29.883375 -4.587212499999989 29.39025 -6.825999999999986 H41.61975 Q41.126625000000004 -4.557624999999987 39.429091500000006 -3.1275624999999874 Q37.731459375 -1.6974999999999874 35.484091500000005 -1.6974999999999874 Z M23.867250000000002 -15.504999999999988 V-17.47749999999999 H47.14275 V-15.504999999999988 H23.867250000000002 Z M21.401625 -26.156499999999987 Q17.062125 -29.50974999999999 14.6458125 -34.29306249999999 Q12.2295 -39.07637499999999 12.2295 -44.697999999999986 Q12.2295 -54.46187499999999 18.9853125 -61.21768749999998 Q25.741125 -67.97349999999999 35.505 -67.97349999999999 Q45.268875 -67.97349999999999 52.0246875 -61.21768749999998 Q58.7805 -54.46187499999999 58.7805 -44.697999999999986 Q58.7805 -39.07637499999999 56.3641875 -34.29306249999999 Q53.947875 -29.50974999999999 49.608375 -26.156499999999987 H21.401625 Z M22.092000000000002 -28.12899999999999 H48.819375 Q52.567125000000004 -31.28499999999999 54.687562500000006 -35.62449999999999 Q56.808 -39.96399999999999 56.808 -44.697999999999986 Q56.808 -53.606500374999996 50.617407375 -59.80379949999998 Q44.42681475 -66.00099999999999 35.527782375 -66.00099999999999 Q26.62875 -66.00099999999999 20.415375 -59.80379949999998 Q14.202 -53.606500374999996 14.202 -44.697999999999986 Q14.202 -39.865374999999986 16.273125 -35.57518749999999 Q18.344250000000002 -31.28499999999999 22.092000000000002 -28.12899999999999 Z"/></g></g></svg>