<svg xmlns="http://www.w3.org/2000/svg" version="1.1" width="3300" height="2000"><g id="Notes"><style>
    text {
      font-family: monospace;
      text-anchor: middle;
    }
    text.emphasis {
      font-weight:bold;
    }
    text.lanchor {
      text-anchor: start;
    }
  </style><rect height="2200" id="artboard" fill="white" width="3300" x="0" y="0"/><line id="" style="fill:none;stroke:black;stroke-width:0.5;" x1="263" x2="3036" y1="292" y2="292"/><text class="lanchor emphasis" transform="matrix(1 0 0 1 263 322)">Weight/Scale Variations</text><text transform="matrix(1 0 0 1 559.711 322)">Ultralight</text><text transform="matrix(1 0 0 1 856.422 322)">Thin</text><text transform="matrix(1 0 0 1 1153.13 322)">Light</text><text transform="matrix(1 0 0 1 1449.84 322)">Regular</text><text transform="matrix(1 0 0 1 1746.56 322)">Medium</text><text transform="matrix(1 0 0 1 2043.27 322)">Semibold</text><text transform="matrix(1 0 0 1 2339.98 322)">Bold</text><text transform="matrix(1 0 0 1 2636.69 322)">Heavy</text><text transform="matrix(1 0 0 1 2933.4 322)">Black</text><text id="template-version" style="text-anchor: end;" transform="matrix(1 0 0 1 3036 1933)">Template v.1.0</text><text class="lanchor" transform="matrix(1 0 0 1 263 726)">Small</text><text class="lanchor" transform="matrix(1 0 0 1 263 1156)">Medium</text><text class="lanchor" transform="matrix(1 0 0 1 263 1586)">Large</text></g><g id="Guides"><g id="H-reference" style="fill:#27AAE1;stroke:none;" transform="matrix(1 0 0 1 339 696)"><path d="M 54.9316 0 L 57.666 0 L 30.5664 -70.459 L 28.0762 -70.459 L 0.976562 0 L 3.66211 0 L 12.9395 -24.4629 L 45.7031 -24.4629 Z M 29.1992 -67.0898 L 29.4434 -67.0898 L 44.8242 -26.709 L 13.8184 -26.709 Z"/></g><line id="Baseline-S" style="fill:none;stroke:#27AAE1;opacity:1;stroke-width:0.577;" x1="263" x2="3036" y1="696" y2="696"/><line id="Capline-S" style="fill:none;stroke:#27AAE1;opacity:1;stroke-width:0.577;" x1="263" x2="3036" y1="625.541" y2="625.541"/><g id="H-reference" style="fill:#27AAE1;stroke:none;" transform="matrix(1 0 0 1 339 1126)"><path d="M 54.9316 0 L 57.666 0 L 30.5664 -70.459 L 28.0762 -70.459 L 0.976562 0 L 3.66211 0 L 12.9395 -24.4629 L 45.7031 -24.4629 Z M 29.1992 -67.0898 L 29.4434 -67.0898 L 44.8242 -26.709 L 13.8184 -26.709 Z"/></g><line id="Baseline-M" style="fill:none;stroke:#27AAE1;opacity:1;stroke-width:0.577;" x1="263" x2="3036" y1="1126" y2="1126"/><line id="Capline-M" style="fill:none;stroke:#27AAE1;opacity:1;stroke-width:0.577;" x1="263" x2="3036" y1="1055.54" y2="1055.54"/><g id="H-reference" style="fill:#27AAE1;stroke:none;" transform="matrix(1 0 0 1 339 1556)"><path d="M 54.9316 0 L 57.666 0 L 30.5664 -70.459 L 28.0762 -70.459 L 0.976562 0 L 3.66211 0 L 12.9395 -24.4629 L 45.7031 -24.4629 Z M 29.1992 -67.0898 L 29.4434 -67.0898 L 44.8242 -26.709 L 13.8184 -26.709 Z"/></g><line id="Baseline-L" style="fill:none;stroke:#27AAE1;opacity:1;stroke-width:0.577;" x1="263" x2="3036" y1="1556" y2="1556"/><line id="Capline-L" style="fill:none;stroke:#27AAE1;opacity:1;stroke-width:0.577;" x1="263" x2="3036" y1="1485.54" y2="1485.54"/><rect height="119.336" id="left-margin" style="fill:darkred;stroke:none;opacity:0.4;" width="12.4512" x="1394.06" y="1030.79"/><rect height="119.336" id="right-margin" style="fill:darkgreen;stroke:none;opacity:0.4;" width="12.4512" x="1502.5112" y="1030.79"/><rect x="1406.5112" y="1045" width="96" height="96" fill="none" stroke="blue" stroke-dasharray="5"/><rect x="1394.06" y="1030.79" width="120.9024" height="119.336" fill="none" stroke="blue"/></g><g id="Symbols"><g id="Bold-L" transform="matrix(1 0 0 1 2266 1556)"><path d="M67.08 30.560000000000016 V-4.431249999999984 H46.60125 L64.21652250000001 -60.093621249999984 Q65.4675 -64.25499999999998 69.29106 -66.59312499999999 Q73.11478125000001 -68.93124999999999 77.410965 -68.93124999999999 Q81.70731 -68.93124999999999 85.534095 -66.58070874999999 Q89.36071874999999 -64.2301675 90.78375 -60.062499999999986 L108.19875 -4.431249999999984 H87.81207375000001 V30.560000000000016 H67.08 Z M77.434185 -77.15499999999999 Q71.75625000000001 -77.15499999999999 67.805625 -81.14561499999999 Q63.855000000000004 -85.13622999999998 63.855000000000004 -90.73999 Q63.855000000000004 -96.34375 67.77144 -100.375 Q71.68771875 -104.40625 77.365815 -104.40625 Q83.04375 -104.40625 86.994375 -100.39015749999999 Q90.94500000000001 -96.37390374999998 90.94500000000001 -90.734185 Q90.94500000000001 -85.16106249999999 87.02856 -81.15803125 Q83.11228125 -77.15499999999999 77.434185 -77.15499999999999 Z"/></g><g id="Semibold-L" transform="matrix(1 0 0 1 1970.27 1556)"><path d="M67.36041374999999 29.999172500000014 V-5.202347499999981 H47.3723475 L64.48000499999999 -59.65937499999998 Q65.74791375 -63.76431624999998 69.45150375 -66.0322975 Q73.15509375 -68.30027874999999 77.40628875 -68.30027874999999 Q81.65748375000001 -68.30027874999999 85.36268625 -66.02536375 Q89.06805 -63.750287499999985 90.4331925 -59.64179874999998 L107.4276525 -5.202347499999981 H87.49167 V29.999172500000014 H67.36041374999999 Z M77.42499375 -76.73429874999998 Q72.1068075 -76.73429874999998 68.36645250000001 -80.49174624999999 Q64.6260975 -84.2490325 64.6260975 -89.52529375 Q64.6260975 -94.80139374999999 68.34145875 -98.58738249999999 Q72.05682 -102.37321 77.37500625000001 -102.37321 Q82.69319250000001 -102.37321 86.4335475 -98.60141124999998 Q90.1739025 -94.82977374999999 90.1739025 -89.53319499999998 Q90.1739025 -84.27418749999998 86.45854125000001 -80.50432374999998 Q82.74318 -76.73429874999998 77.42499375 -76.73429874999998 Z"/></g><g id="Medium-L" transform="matrix(1 0 0 1 1674.31 1556)"><path d="M67.57068375 29.578471250000014 V-5.780912499999985 H47.9509125 L64.67753625 -59.33381124999998 Q65.95818375 -63.39618249999998 69.57179624999999 -65.61159624999999 Q73.1852475 -67.82700999999999 77.40258 -67.82700999999999 Q81.6199125 -67.82700999999999 85.23416999999999 -65.60869374999999 Q88.84858875 -63.39021624999998 90.170355 -59.32639374999998 L106.8490875 -5.780912499999985 H87.25124625 V29.578471250000014 H67.57068375 Z M77.41789875 -76.41889374999998 Q72.36964499999999 -76.41889374999998 68.78715375 -80.00122374999998 Q65.2046625 -83.58355374999998 65.2046625 -88.61406999999997 Q65.2046625 -93.64458624999997 68.769255 -97.24642749999998 Q72.3338475 -100.84826874999999 77.38210125 -100.84826874999999 Q82.430355 -100.84826874999999 86.01284625000001 -97.25981124999998 Q89.5953375 -93.67135374999998 89.5953375 -88.63229124999998 Q89.5953375 -83.60903124999999 86.030745 -80.01396249999999 Q82.4661525 -76.41889374999998 77.41789875 -76.41889374999998 Z"/></g><g id="Regular-L" transform="matrix(1 0 0 1 1378.56 1556)"><path d="M67.72500000000001 29.270000000000017 V-6.204999999999984 H48.375 L64.8225 -59.094999999999985 Q66.1125 -63.126249999999985 69.66 -65.30312499999998 Q73.2075 -67.47999999999999 77.4 -67.47999999999999 Q81.5925 -67.47999999999999 85.14 -65.30312499999998 Q88.6875 -63.126249999999985 89.9775 -59.094999999999985 L106.425 -6.204999999999984 H87.075 V29.270000000000017 H67.72500000000001 Z M77.4129 -76.18749999999999 Q72.5625 -76.18749999999999 69.095625 -79.64147499999999 Q65.62875 -83.09561124999999 65.62875 -87.94584999999998 Q65.62875 -92.79624999999999 69.08272500000001 -96.26312499999997 Q72.53686125 -99.72999999999999 77.3871 -99.72999999999999 Q82.2375 -99.72999999999999 85.704375 -96.276025 Q89.17125 -92.82188875 89.17125 -87.97164999999998 Q89.17125 -83.12124999999999 85.71727500000001 -79.65437499999999 Q82.26313875 -76.18749999999999 77.4129 -76.18749999999999 Z"/></g><g id="Light-L" transform="matrix(1 0 0 1 1082.77 1556)"><path d="M67.352835 27.657338750000015 V-9.058157499999986 H48.747165 L65.30625 -59.16949749999999 Q66.59625 -62.98983249999999 69.9944325 -65.11091499999999 Q73.39245375 -67.23183624999999 77.4 -67.23183624999999 Q81.40754625000001 -67.23183624999999 84.80556750000001 -65.11091499999999 Q88.20375 -62.98983249999999 89.50213500000001 -59.174657499999995 L106.052835 -9.058157499999986 H87.447165 V27.657338750000015 H67.352835 Z M77.4129 -76.18749999999999 Q72.78583125 -76.18749999999999 69.548415 -79.44104125 Q66.31099875 -82.69474374999999 66.31099875 -87.26360125 Q66.31099875 -91.89067 69.535515 -95.12808625 Q72.76003125000001 -98.36550249999999 77.3871 -98.36550249999999 Q82.01416875000001 -98.36550249999999 85.251585 -95.14098625 Q88.48900125 -91.91646999999998 88.48900125 -87.32036124999999 Q88.48900125 -82.72425249999999 85.26448500000001 -79.45587624999999 Q82.03996875 -76.18749999999999 77.4129 -76.18749999999999 Z"/></g><g id="Thin-L" transform="matrix(1 0 0 1 787.282 1556)"><path d="M66.98083125 26.045000000000016 V-11.910669999999989 H49.11916875 L65.79 -59.24383374999999 Q67.08 -62.853414999999984 70.32870375 -64.91854374999998 Q73.57740749999999 -66.98383374999999 77.4 -66.98383374999999 Q81.2225925 -66.98383374999999 84.47129625 -64.91854374999998 Q87.72 -62.853414999999984 89.02693125 -59.25431499999999 L105.68083125 -11.910669999999989 H87.81916875 V26.045000000000016 H66.98083125 Z M77.4129 -76.18749999999999 Q73.00900125 -76.18749999999999 70.00104375000001 -79.24076874999997 Q66.99308625 -82.29403749999999 66.99308625 -86.58151374999997 Q66.99308625 -90.98525124999998 69.988305 -93.99320874999998 Q72.9833625 -97.00116624999998 77.3871 -97.00116624999998 Q81.79099875 -97.00116624999998 84.79895625 -94.00610874999998 Q87.80691375 -91.01105124999998 87.80691375 -86.66923374999999 Q87.80691375 -82.32741624999998 84.81169500000001 -79.25737749999999 Q81.8166375 -76.18749999999999 77.4129 -76.18749999999999 Z"/></g><g id="Ultralight-L" transform="matrix(1 0 0 1 491.205 1556)"><path d="M66.75750000000001 25.077500000000015 V-13.622499999999988 H49.3425 L66.08025 -59.2885 Q67.37025 -62.771499999999975 70.52929875000001 -64.80324999999998 Q73.6883475 -66.835 77.4 -66.835 Q81.11165249999999 -66.835 84.27070125 -64.80324999999998 Q87.42975000000001 -62.771499999999975 88.74168 -59.30204499999999 L105.4575 -13.622499999999988 H88.0425 V25.077500000000015 H66.75750000000001 Z M77.4129 -76.18749999999999 Q73.143 -76.18749999999999 70.27275 -79.12047624999998 Q67.4025 -82.05345249999999 67.4025 -86.17209999999997 Q67.4025 -90.44199999999998 70.25985 -93.31225 Q73.11736125 -96.18249999999998 77.3871 -96.18249999999998 Q81.657 -96.18249999999998 84.52725000000001 -93.32514999999998 Q87.39750000000001 -90.46763874999999 87.39750000000001 -86.278525 Q87.39750000000001 -82.08924999999999 84.54015 -79.13837499999998 Q81.68263875000001 -76.18749999999999 77.4129 -76.18749999999999 Z"/></g><g id="Bold-M" transform="matrix(1 0 0 1 2281.8 1126)"><path d="M49.25 16.14500000000001 V-13.35499999999999 H33.125 L49.53025 -54.75412499999999 Q50.875 -57.97999999999999 53.75 -59.85499999999999 Q56.625 -61.72999999999999 60.0 -61.72999999999999 Q63.375 -61.72999999999999 66.252375 -59.84537499999999 Q69.12975 -57.96074999999999 70.5 -54.72999999999999 L86.875 -13.35499999999999 H70.75 V16.14500000000001 H49.25 Z M60.016625 -66.22999999999999 Q55.125 -66.22999999999999 51.625 -69.71337499999998 Q48.125 -73.19675 48.125 -78.08837499999998 Q48.125 -82.97999999999999 51.608375 -86.47999999999999 Q55.091875 -89.97999999999999 59.983375 -89.97999999999999 Q64.875 -89.97999999999999 68.375 -86.496625 Q71.875 -83.01324999999999 71.875 -78.121625 Q71.875 -73.22999999999999 68.391625 -69.72999999999999 Q64.90825 -66.22999999999999 60.016625 -66.22999999999999 Z"/></g><g id="Semibold-M" transform="matrix(1 0 0 1 1985.97 1126)"><path d="M49.576125 15.54725000000001 V-14.170124999999992 H33.940125 L49.84325 -54.308874999999986 Q51.14675 -57.436499999999995 53.913 -59.257249999999985 Q56.679375 -61.07787499999999 60.0 -61.07787499999999 Q63.320625 -61.07787499999999 66.088375 -59.25174999999999 Q68.856 -57.425625 70.173875 -54.295249999999996 L86.059875 -14.170124999999992 H70.423875 V15.54725000000001 H49.576125 Z M60.009375 -65.79525 Q55.451125 -65.79525 52.195625 -69.04137499999999 Q48.940125 -72.28737499999998 48.940125 -76.84575 Q48.940125 -81.404 52.18625 -84.6595 Q55.43225 -87.914875 59.990625 -87.914875 Q64.548875 -87.914875 67.804375 -84.66887499999999 Q71.059875 -81.42275 71.059875 -76.86449999999999 Q71.059875 -72.306125 67.81375 -69.05075 Q64.56775 -65.79525 60.009375 -65.79525 Z"/></g><g id="Medium-M" transform="matrix(1 0 0 1 1689.91 1126)"><path d="M49.820625 15.09875000000001 V-14.781624999999991 H34.551625 L50.077875 -53.97487499999998 Q51.3505 -57.028874999999985 54.035375 -58.80874999999999 Q56.720125 -60.58874999999999 60.0 -60.58874999999999 Q63.279875 -60.58874999999999 65.96525 -58.806499999999986 Q68.650625 -57.02437499999999 69.929375 -53.96912499999999 L85.448375 -14.781624999999991 H70.179375 V15.09875000000001 H49.820625 Z M60.004 -65.46912499999999 Q55.695625 -65.46912499999999 52.623625 -68.53712499999999 Q49.551625 -71.60524999999998 49.551625 -75.91349999999998 Q49.551625 -80.22187499999998 52.619625 -83.29387499999999 Q55.68775 -86.36587499999999 59.996 -86.36587499999999 Q64.304375 -86.36587499999999 67.376375 -83.29787499999999 Q70.448375 -80.22975 70.448375 -75.9215 Q70.448375 -71.613125 67.380375 -68.541125 Q64.31225 -65.46912499999999 60.004 -65.46912499999999 Z"/></g><g id="Regular-M" transform="matrix(1 0 0 1 1394.06 1126)"><path d="M50.0 14.77000000000001 V-15.22999999999999 H35.0 L50.25 -53.72999999999999 Q51.5 -56.72999999999999 54.125 -58.47999999999999 Q56.75 -60.22999999999999 60.0 -60.22999999999999 Q63.25 -60.22999999999999 65.875 -58.47999999999999 Q68.5 -56.72999999999999 69.75 -53.72999999999999 L85.0 -15.22999999999999 H70.0 V14.77000000000001 H50.0 Z M60.0 -65.22999999999999 Q55.875 -65.22999999999999 52.9375 -68.16749999999999 Q50.0 -71.10499999999999 50.0 -75.22999999999999 Q50.0 -79.35499999999999 52.9375 -82.29249999999999 Q55.875 -85.22999999999999 60.0 -85.22999999999999 Q64.125 -85.22999999999999 67.0625 -82.29249999999999 Q70.0 -79.35499999999999 70.0 -75.22999999999999 Q70.0 -71.10499999999999 67.0625 -68.16749999999999 Q64.125 -65.22999999999999 60.0 -65.22999999999999 Z"/></g><g id="Light-M" transform="matrix(1 0 0 1 1098.18 1126)"><path d="M50.384625 13.51987500000001 V-16.768624999999993 H35.961625 L50.625 -53.78774999999999 Q51.827 -56.67224999999999 54.351 -58.35499999999999 Q56.875 -60.03762499999999 60.0 -60.03762499999999 Q63.125 -60.03762499999999 65.649 -58.35499999999999 Q68.173 -56.67224999999999 69.375 -53.78774999999999 L84.038375 -16.768624999999993 H69.615375 V13.51987500000001 H50.384625 Z M60.0 -65.71074999999999 Q56.192375 -65.71074999999999 53.48075 -68.42237499999999 Q50.76925 -71.13387499999999 50.76925 -74.94149999999999 Q50.76925 -78.74924999999999 53.48075 -81.46074999999999 Q56.192375 -84.17224999999999 60.0 -84.17224999999999 Q63.807625 -84.17224999999999 66.51925 -81.46074999999999 Q69.23075 -78.74924999999999 69.23075 -74.94149999999999 Q69.23075 -71.13387499999999 66.51925 -68.42237499999999 Q63.807625 -65.71074999999999 60.0 -65.71074999999999 Z"/></g><g id="Thin-M" transform="matrix(1 0 0 1 802.565 1126)"><path d="M50.76925 12.27000000000001 V-18.30687499999999 H36.923125 L51.0 -53.84537499999999 Q52.153875 -56.61462499999999 54.576875 -58.22999999999999 Q57.0 -59.84537499999999 60.0 -59.84537499999999 Q63.0 -59.84537499999999 65.423125 -58.22999999999999 Q67.846125 -56.61462499999999 69.0 -53.84537499999999 L83.076875 -18.30687499999999 H69.23075 V12.27000000000001 H50.76925 Z M60.0 -66.19149999999999 Q56.509625 -66.19149999999999 54.024 -68.67712499999999 Q51.5385 -71.16274999999999 51.5385 -74.65312499999999 Q51.5385 -78.14349999999999 54.024 -80.62899999999999 Q56.509625 -83.11462499999999 60.0 -83.11462499999999 Q63.490375 -83.11462499999999 65.976 -80.62899999999999 Q68.4615 -78.14349999999999 68.4615 -74.65312499999999 Q68.4615 -71.16274999999999 65.976 -68.67712499999999 Q63.490375 -66.19149999999999 60.0 -66.19149999999999 Z"/></g><g id="Ultralight-M" transform="matrix(1 0 0 1 506.415 1126)"><path d="M51.0 11.52000000000001 V-19.22999999999999 H37.5 L51.225 -53.879999999999995 Q52.35 -56.579999999999984 54.7125 -58.15499999999999 Q57.075 -59.72999999999999 60.0 -59.72999999999999 Q62.925 -59.72999999999999 65.2875 -58.15499999999999 Q67.65 -56.579999999999984 68.775 -53.879999999999995 L82.5 -19.22999999999999 H69.0 V11.52000000000001 H51.0 Z M60.0 -66.47999999999999 Q56.7 -66.47999999999999 54.35 -68.82999999999998 Q52.0 -71.17999999999999 52.0 -74.47999999999999 Q52.0 -77.77999999999999 54.35 -80.13 Q56.7 -82.47999999999999 60.0 -82.47999999999999 Q63.3 -82.47999999999999 65.65 -80.13 Q68.0 -77.77999999999999 68.0 -74.47999999999999 Q68.0 -71.17999999999999 65.65 -68.82999999999998 Q63.3 -66.47999999999999 60.0 -66.47999999999999 Z"/></g><g id="Bold-S" transform="matrix(1 0 0 1 2294.23 696)"><path d="M39.64725 3.726875000000014 V-14.814624999999989 H26.924625000000002 L40.16424225 -45.900534624999985 Q41.028 -48.05124999999999 43.0498125 -49.33337499999999 Q45.071625000000004 -50.61549999999999 47.34 -50.61549999999999 Q49.608375 -50.61549999999999 51.632061375 -49.32578087499999 Q53.65574775 -48.03606174999999 54.539625 -45.88149999999999 L67.755375 -14.814624999999989 H55.03275 V3.726875000000014 H39.64725 Z M47.328658125000004 -57.32199999999999 Q43.296375000000005 -57.32199999999999 40.43625 -60.193466874999984 Q37.576125000000005 -63.064933749999994 37.576125000000005 -67.09721687499999 Q37.576125000000005 -71.1295 40.447591875 -73.98962499999999 Q43.31905875 -76.84974999999999 47.351341875 -76.84974999999999 Q51.383625 -76.84974999999999 54.243750000000006 -73.97828312499999 Q57.103875 -71.10681625 57.103875 -67.07453312499999 Q57.103875 -63.042249999999996 54.232408125 -60.182124999999985 Q51.36094125 -57.32199999999999 47.328658125000004 -57.32199999999999 Z"/></g><g id="Semibold-S" transform="matrix(1 0 0 1 1998.1 696)"><path d="M39.904562625 3.255250250000014 V-15.45775862499999 H27.567758625000003 L40.41119925 -45.54923237499999 Q41.24241075 -47.62242849999999 43.1784195 -48.861750249999986 Q45.114526875 -50.10097337499999 47.34 -50.10097337499999 Q49.565473125000004 -50.10097337499999 51.502665375 -48.857410749999985 Q53.439758999999995 -47.613848125 54.282312375 -45.538482249999994 L67.11224137500001 -15.45775862499999 H54.775437374999996 V3.255250250000014 H39.904562625 Z M47.322937875 -56.97898224999999 Q43.553687625 -56.97898224999999 40.886473125 -59.66316024999999 Q38.219258625 -62.347436875 38.219258625 -66.11668712499998 Q38.219258625 -69.88603599999999 40.903535250000004 -72.55325049999999 Q43.58771325 -75.220366375 47.357062125 -75.220366375 Q51.126312375 -75.220366375 53.793526875 -72.536188375 Q56.460741375000005 -69.85201037499999 56.460741375000005 -66.08266149999999 Q56.460741375000005 -62.313312624999995 53.776464749999995 -59.64619674999999 Q51.09228675000001 -56.97898224999999 47.322937875 -56.97898224999999 Z"/></g><g id="Medium-S" transform="matrix(1 0 0 1 1701.85 696)"><path d="M40.097473125 2.9013837500000133 V-15.940232124999987 H28.050232125 L40.596318375 -45.28570637499998 Q41.4031695 -47.300812374999985 43.274973375 -48.50788374999999 Q45.14667862500001 -49.71505374999999 47.34 -49.71505374999999 Q49.533321375 -49.71505374999999 51.40551975 -48.50610849999999 Q53.27771812500001 -47.29726187499999 54.089401875 -45.28116962499999 L66.629767875 -15.940232124999987 H54.582526875 V2.9013837500000133 H40.097473125 Z M47.318697 -56.72166962499999 Q43.746598125 -56.72166962499999 41.224165125 -59.265405625 Q38.701732125 -61.80914162499998 38.701732125 -65.38124049999999 Q38.701732125 -68.95333937499998 41.245468125 -71.47577237499999 Q43.789204125000005 -73.99820537499998 47.361303 -73.99820537499998 Q50.933401874999994 -73.99820537499998 53.455834875 -71.45446937499999 Q55.978267875 -68.91073337499999 55.978267875 -65.33863449999998 Q55.978267875 -61.76653562499999 53.434531875 -59.244102625 Q50.89079587500001 -56.72166962499999 47.318697 -56.72166962499999 Z"/></g><g id="Regular-S" transform="matrix(1 0 0 1 1405.73 696)"><path d="M40.239000000000004 2.6420000000000137 V-16.293999999999986 H28.404 L40.732125 -45.09249999999999 Q41.521125000000005 -47.06499999999999 43.345687500000004 -48.248499999999986 Q45.17025 -49.43199999999999 47.34 -49.43199999999999 Q49.509750000000004 -49.43199999999999 51.3343125 -48.248499999999986 Q53.158875 -47.06499999999999 53.947875 -45.09249999999999 L66.276 -16.293999999999986 H54.441 V2.6420000000000137 H40.239000000000004 Z M47.315541 -56.53299999999999 Q43.888125 -56.53299999999999 41.4718125 -58.9737715 Q39.0555 -61.414542999999995 39.0555 -64.84195899999999 Q39.0555 -68.269375 41.4962715 -70.68568749999999 Q43.937043 -73.10199999999999 47.364459000000004 -73.10199999999999 Q50.791875000000005 -73.10199999999999 53.2081875 -70.66122849999998 Q55.624500000000005 -68.220457 55.624500000000005 -64.79304099999999 Q55.624500000000005 -61.365624999999994 53.1837285 -58.94931249999999 Q50.742957000000004 -56.53299999999999 47.315541 -56.53299999999999 Z"/></g><g id="Light-S" transform="matrix(1 0 0 1 1109.75 696)"><path d="M40.542469125000004 1.6556513750000121 V-17.50797512499999 H29.162722125 L41.028 -45.13806474999999 Q41.779128 -47.01943524999999 43.524001500000004 -48.14987499999999 Q45.268875 -49.28021612499999 47.34 -49.28021612499999 Q49.411125000000006 -49.28021612499999 51.1559985 -48.14987499999999 Q52.90087200000001 -47.01943524999999 53.652 -45.13806474999999 L65.517277875 -17.50797512499999 H54.137530875 V1.6556513750000121 H40.542469125000004 Z M47.315541 -56.912311749999986 Q44.138533875 -56.912311749999986 41.900436750000004 -59.17476924999998 Q39.66243825 -61.437226749999994 39.66243825 -64.61433249999999 Q39.66243825 -67.79143824999998 41.924895750000005 -70.02943674999999 Q44.18735325 -72.26743524999999 47.364459000000004 -72.26743524999999 Q50.54146612500001 -72.26743524999999 52.77956325 -70.00497774999998 Q55.017561750000006 -67.74252025 55.017561750000006 -64.56541449999999 Q55.017561750000006 -61.388407374999986 52.755104249999995 -59.15040887499998 Q50.492646750000006 -56.912311749999986 47.315541 -56.912311749999986 Z"/></g><g id="Thin-S" transform="matrix(1 0 0 1 814.015 696)"><path d="M40.84593825 0.6695000000000135 V-18.72165437499999 H29.921345625 L41.323875 -45.18353087499999 Q42.037032375 -46.97396912499999 43.702216875000005 -48.05124999999999 Q45.3675 -49.12853087499999 47.34 -49.12853087499999 Q49.3125 -49.12853087499999 50.977783125 -48.05124999999999 Q52.642967625000004 -46.97396912499999 53.356125000000006 -45.18353087499999 L64.758654375 -18.72165437499999 H53.834061750000004 V0.6695000000000135 H40.84593825 Z M47.315541 -57.291623499999986 Q44.388844125 -57.291623499999986 42.329061 -59.37586562499999 Q40.2693765 -61.460009124999985 40.2693765 -64.38670599999999 Q40.2693765 -67.31350149999999 42.35352 -69.37318599999999 Q44.4376635 -71.43296912499999 47.364459000000004 -71.43296912499999 Q50.291155875 -71.43296912499999 52.350939000000004 -69.34882562499999 Q54.4106235 -67.26458349999999 54.4106235 -64.33788662499998 Q54.4106235 -61.41118974999999 52.32648 -59.351406624999996 Q50.24223787500001 -57.291623499999986 47.315541 -57.291623499999986 Z"/></g><g id="Ultralight-S" transform="matrix(1 0 0 1 517.792 696)"><path d="M41.028 0.07775000000001242 V-19.44999999999999 H30.3765 L41.501400000000004 -45.21084999999999 Q42.191775 -46.946649999999984 43.809225 -47.992074999999986 Q45.426675 -49.03749999999999 47.34 -49.03749999999999 Q49.253325 -49.03749999999999 50.870774999999995 -47.992074999999986 Q52.48822500000001 -46.946649999999984 53.17860000000001 -45.21084999999999 L64.3035 -19.44999999999999 H53.652 V0.07775000000001242 H41.028 Z M47.315541 -57.519249999999985 Q44.53905 -57.519249999999985 42.586275 -59.496483999999995 Q40.633500000000005 -61.47371799999999 40.633500000000005 -64.250209 Q40.633500000000005 -67.02669999999999 42.610734 -68.979475 Q44.587968000000004 -70.93225 47.364459000000004 -70.93225 Q50.14095 -70.93225 52.093725000000006 -68.95501599999999 Q54.0465 -66.97778199999999 54.0465 -64.20129099999998 Q54.0465 -61.42479999999999 52.069266 -59.47202499999999 Q50.092032 -57.519249999999985 47.315541 -57.519249999999985 Z"/></g></g></svg>