<svg xmlns="http://www.w3.org/2000/svg" version="1.1" width="3300" height="2000"><g id="Notes"><style>
    text {
      font-family: monospace;
      text-anchor: middle;
    }
    text.emphasis {
      font-weight:bold;
    }
    text.lanchor {
      text-anchor: start;
    }
  </style><rect height="2200" id="artboard" fill="white" width="3300" x="0" y="0"/><line id="" style="fill:none;stroke:black;stroke-width:0.5;" x1="263" x2="3036" y1="292" y2="292"/><text class="lanchor emphasis" transform="matrix(1 0 0 1 263 322)">Weight/Scale Variations</text><text transform="matrix(1 0 0 1 559.711 322)">Ultralight</text><text transform="matrix(1 0 0 1 856.422 322)">Thin</text><text transform="matrix(1 0 0 1 1153.13 322)">Light</text><text transform="matrix(1 0 0 1 1449.84 322)">Regular</text><text transform="matrix(1 0 0 1 1746.56 322)">Medium</text><text transform="matrix(1 0 0 1 2043.27 322)">Semibold</text><text transform="matrix(1 0 0 1 2339.98 322)">Bold</text><text transform="matrix(1 0 0 1 2636.69 322)">Heavy</text><text transform="matrix(1 0 0 1 2933.4 322)">Black</text><text id="template-version" style="text-anchor: end;" transform="matrix(1 0 0 1 3036 1933)">Template v.1.0</text><text class="lanchor" transform="matrix(1 0 0 1 263 726)">Small</text><text class="lanchor" transform="matrix(1 0 0 1 263 1156)">Medium</text><text class="lanchor" transform="matrix(1 0 0 1 263 1586)">Large</text></g><g id="Guides"><g id="H-reference" style="fill:#27AAE1;stroke:none;" transform="matrix(1 0 0 1 339 696)"><path d="M 54.9316 0 L 57.666 0 L 30.5664 -70.459 L 28.0762 -70.459 L 0.976562 0 L 3.66211 0 L 12.9395 -24.4629 L 45.7031 -24.4629 Z M 29.1992 -67.0898 L 29.4434 -67.0898 L 44.8242 -26.709 L 13.8184 -26.709 Z"/></g><line id="Baseline-S" style="fill:none;stroke:#27AAE1;opacity:1;stroke-width:0.577;" x1="263" x2="3036" y1="696" y2="696"/><line id="Capline-S" style="fill:none;stroke:#27AAE1;opacity:1;stroke-width:0.577;" x1="263" x2="3036" y1="625.541" y2="625.541"/><g id="H-reference" style="fill:#27AAE1;stroke:none;" transform="matrix(1 0 0 1 339 1126)"><path d="M 54.9316 0 L 57.666 0 L 30.5664 -70.459 L 28.0762 -70.459 L 0.976562 0 L 3.66211 0 L 12.9395 -24.4629 L 45.7031 -24.4629 Z M 29.1992 -67.0898 L 29.4434 -67.0898 L 44.8242 -26.709 L 13.8184 -26.709 Z"/></g><line id="Baseline-M" style="fill:none;stroke:#27AAE1;opacity:1;stroke-width:0.577;" x1="263" x2="3036" y1="1126" y2="1126"/><line id="Capline-M" style="fill:none;stroke:#27AAE1;opacity:1;stroke-width:0.577;" x1="263" x2="3036" y1="1055.54" y2="1055.54"/><g id="H-reference" style="fill:#27AAE1;stroke:none;" transform="matrix(1 0 0 1 339 1556)"><path d="M 54.9316 0 L 57.666 0 L 30.5664 -70.459 L 28.0762 -70.459 L 0.976562 0 L 3.66211 0 L 12.9395 -24.4629 L 45.7031 -24.4629 Z M 29.1992 -67.0898 L 29.4434 -67.0898 L 44.8242 -26.709 L 13.8184 -26.709 Z"/></g><line id="Baseline-L" style="fill:none;stroke:#27AAE1;opacity:1;stroke-width:0.577;" x1="263" x2="3036" y1="1556" y2="1556"/><line id="Capline-L" style="fill:none;stroke:#27AAE1;opacity:1;stroke-width:0.577;" x1="263" x2="3036" y1="1485.54" y2="1485.54"/><rect height="119.336" id="left-margin" style="fill:darkred;stroke:none;opacity:0.4;" width="12.4512" x="1394.06" y="1030.79"/><rect height="119.336" id="right-margin" style="fill:darkgreen;stroke:none;opacity:0.4;" width="12.4512" x="1502.5112" y="1030.79"/><rect x="1406.5112" y="1045" width="96" height="96" fill="none" stroke="blue" stroke-dasharray="5"/><rect x="1394.06" y="1030.79" width="120.9024" height="119.336" fill="none" stroke="blue"/></g><g id="Symbols"><g id="Bold-L" transform="matrix(1 0 0 1 2266 1556)"><path d="M64.01625 30.560000000000016 V-14.106249999999989 H51.11625 V-52.16124999999998 Q51.11625 -58.41371874999999 55.568685 -62.86615374999998 Q60.02128125000001 -67.31874999999998 66.27375 -67.31874999999998 H88.52625 Q94.77871875 -67.31874999999998 99.23115374999999 -62.86615374999998 Q103.68375 -58.41371874999999 103.68375 -52.16124999999998 V-14.106249999999989 H90.78375 V30.560000000000016 H64.01625 Z M77.434185 -77.15499999999999 Q71.75625000000001 -77.15499999999999 67.805625 -81.14561499999999 Q63.855000000000004 -85.13622999999998 63.855000000000004 -90.73999 Q63.855000000000004 -96.34375 67.77144 -100.375 Q71.68771875 -104.40625 77.365815 -104.40625 Q83.04375 -104.40625 86.994375 -100.39015749999999 Q90.94500000000001 -96.37390374999998 90.94500000000001 -90.734185 Q90.94500000000001 -85.16106249999999 87.02856 -81.15803125 Q83.11228125 -77.15499999999999 77.434185 -77.15499999999999 Z"/></g><g id="Semibold-L" transform="matrix(1 0 0 1 1970.27 1556)"><path d="M65.62858875 29.999172500000014 V-14.877347499999985 H52.72858875000001 V-54.12414624999998 Q52.72858875000001 -59.393473749999984 56.4810375 -63.14576124999998 Q60.23332500000001 -66.89804874999999 65.50265250000001 -66.89804874999999 H89.29734750000001 Q94.566675 -66.89804874999999 98.31896250000001 -63.14576124999998 Q102.07141125 -59.393473749999984 102.07141125 -54.12414624999998 V-14.877347499999985 H89.17141125 V29.999172500000014 H65.62858875 Z M77.42499375 -76.73429874999998 Q72.1068075 -76.73429874999998 68.36645250000001 -80.49174624999999 Q64.6260975 -84.2490325 64.6260975 -89.52529375 Q64.6260975 -94.80139374999999 68.34145875 -98.58738249999999 Q72.05682 -102.37321 77.37500625000001 -102.37321 Q82.69319250000001 -102.37321 86.4335475 -98.60141124999998 Q90.1739025 -94.82977374999999 90.1739025 -89.53319499999998 Q90.1739025 -84.27418749999998 86.45854125000001 -80.50432374999998 Q82.74318 -76.73429874999998 77.42499375 -76.73429874999998 Z"/></g><g id="Medium-L" transform="matrix(1 0 0 1 1674.31 1556)"><path d="M66.838125 29.578471250000014 V-15.45591249999999 H53.938125 V-55.596519999999984 Q53.938125 -60.12828999999999 57.165221249999995 -63.355386249999995 Q60.39247875 -66.58264374999997 64.9240875 -66.58264374999997 H89.8759125 Q94.40752125 -66.58264374999997 97.63477875 -63.355386249999995 Q100.861875 -60.12828999999999 100.861875 -55.596519999999984 V-15.45591249999999 H87.961875 V29.578471250000014 H66.838125 Z M77.41789875 -76.41889374999998 Q72.36964499999999 -76.41889374999998 68.78715375 -80.00122374999998 Q65.2046625 -83.58355374999998 65.2046625 -88.61406999999997 Q65.2046625 -93.64458624999997 68.769255 -97.24642749999998 Q72.3338475 -100.84826874999999 77.38210125 -100.84826874999999 Q82.430355 -100.84826874999999 86.01284625000001 -97.25981124999998 Q89.5953375 -93.67135374999998 89.5953375 -88.63229124999998 Q89.5953375 -83.60903124999999 86.030745 -80.01396249999999 Q82.4661525 -76.41889374999998 77.41789875 -76.41889374999998 Z"/></g><g id="Regular-L" transform="matrix(1 0 0 1 1378.56 1556)"><path d="M67.72500000000001 29.270000000000017 V-15.879999999999988 H54.825 V-56.67624999999998 Q54.825 -60.66718749999998 57.66703125 -63.50921874999999 Q60.5090625 -66.35125 64.5 -66.35125 H90.3 Q94.2909375 -66.35125 97.13296875 -63.50921874999999 Q99.97500000000001 -60.66718749999998 99.97500000000001 -56.67624999999998 V-15.879999999999988 H87.075 V29.270000000000017 H67.72500000000001 Z M77.4129 -76.18749999999999 Q72.5625 -76.18749999999999 69.095625 -79.64147499999999 Q65.62875 -83.09561124999999 65.62875 -87.94584999999998 Q65.62875 -92.79624999999999 69.08272500000001 -96.26312499999997 Q72.53686125 -99.72999999999999 77.3871 -99.72999999999999 Q82.2375 -99.72999999999999 85.704375 -96.276025 Q89.17125 -92.82188875 89.17125 -87.97164999999998 Q89.17125 -83.12124999999999 85.71727500000001 -79.65437499999999 Q82.26313875 -76.18749999999999 77.4129 -76.18749999999999 Z"/></g><g id="Light-L" transform="matrix(1 0 0 1 1082.77 1556)"><path d="M67.60099875 27.657338750000015 V-16.128163749999985 H55.445167500000004 V-55.99400124999998 Q55.445167500000004 -59.78337624999999 58.20205875 -62.540106249999994 Q60.95878875 -65.29683624999998 64.74816375 -65.29683624999998 H90.05183625000001 Q93.84121125 -65.29683624999998 96.59794125 -62.540106249999994 Q99.3548325 -59.78337624999999 99.3548325 -55.99400124999998 V-16.128163749999985 H87.19900125000001 V27.657338750000015 H67.60099875 Z M77.4129 -76.18749999999999 Q72.78583125 -76.18749999999999 69.548415 -79.44297624999999 Q66.31099875 -82.69861374999999 66.31099875 -87.26360125 Q66.31099875 -91.89067 69.535515 -95.12808625 Q72.76003125000001 -98.36550249999999 77.3871 -98.36550249999999 Q82.01416875000001 -98.36550249999999 85.251585 -95.14098625 Q88.48900125 -91.91646999999998 88.48900125 -87.28940125 Q88.48900125 -82.72425249999999 85.26448500000001 -79.45587624999999 Q82.03996875 -76.18749999999999 77.4129 -76.18749999999999 Z"/></g><g id="Thin-L" transform="matrix(1 0 0 1 787.282 1556)"><path d="M67.4769975 26.045000000000016 V-16.376166249999983 H56.065335000000005 V-55.31191374999999 Q56.065335000000005 -58.899726249999986 58.736925 -61.57115499999999 Q61.40835375 -64.24258375 64.99616625 -64.24258375 H89.80383375000001 Q93.39164625000001 -64.24258375 96.063075 -61.57115499999999 Q98.734665 -58.899726249999986 98.734665 -55.31191374999999 V-16.376166249999983 H87.3230025 V26.045000000000016 H67.4769975 Z M77.4129 -76.18749999999999 Q73.00900125 -76.18749999999999 70.00104375000001 -79.24463874999998 Q66.99308625 -82.30177749999999 66.99308625 -86.58151374999997 Q66.99308625 -90.98525124999998 69.988305 -93.99320874999998 Q72.9833625 -97.00116624999998 77.3871 -97.00116624999998 Q81.79099875 -97.00116624999998 84.79895625 -94.00610874999998 Q87.80691375 -91.01105124999998 87.80691375 -86.60715249999998 Q87.80691375 -82.32741624999998 84.81169500000001 -79.25737749999999 Q81.8166375 -76.18749999999999 77.4129 -76.18749999999999 Z"/></g><g id="Ultralight-L" transform="matrix(1 0 0 1 491.205 1556)"><path d="M67.4025 25.077500000000015 V-16.524999999999984 H56.4375 V-54.90249999999999 Q56.4375 -58.36937499999999 59.057812500000004 -60.98968749999999 Q61.678125 -63.609999999999985 65.145 -63.609999999999985 H89.655 Q93.121875 -63.609999999999985 95.7421875 -60.98968749999999 Q98.3625 -58.36937499999999 98.3625 -54.90249999999999 V-16.524999999999984 H87.39750000000001 V25.077500000000015 H67.4025 Z M77.4129 -76.18749999999999 Q73.143 -76.18749999999999 70.27275 -79.125475 Q67.4025 -82.06361125 67.4025 -86.17209999999997 Q67.4025 -90.44199999999998 70.25985 -93.31225 Q73.11736125 -96.18249999999998 77.3871 -96.18249999999998 Q81.657 -96.18249999999998 84.52725000000001 -93.32514999999998 Q87.39750000000001 -90.46763874999999 87.39750000000001 -86.1979 Q87.39750000000001 -82.08924999999999 84.54015 -79.13837499999998 Q81.68263875000001 -76.18749999999999 77.4129 -76.18749999999999 Z"/></g><g id="Bold-M" transform="matrix(1 0 0 1 2281.8 1126)"><path d="M46.125 16.14500000000001 V-18.35499999999999 H36.125 V-45.47999999999999 Q36.125 -51.97687499999999 40.751625 -56.603374999999986 Q45.378125 -61.22999999999999 51.875 -61.22999999999999 H68.125 Q74.621875 -61.22999999999999 79.248375 -56.603374999999986 Q83.875 -51.97687499999999 83.875 -45.47999999999999 V-18.35499999999999 H73.875 V16.14500000000001 H46.125 Z M60.016625 -66.22999999999999 Q55.125 -66.22999999999999 51.625 -69.71337499999998 Q48.125 -73.19675 48.125 -78.08837499999998 Q48.125 -82.97999999999999 51.608375 -86.47999999999999 Q55.091875 -89.97999999999999 59.983375 -89.97999999999999 Q64.875 -89.97999999999999 68.375 -86.496625 Q71.875 -83.01324999999999 71.875 -78.121625 Q71.875 -73.22999999999999 68.391625 -69.72999999999999 Q64.90825 -66.22999999999999 60.016625 -66.22999999999999 Z"/></g><g id="Semibold-M" transform="matrix(1 0 0 1 1985.97 1126)"><path d="M47.809625 15.54725000000001 V-19.17012499999999 H37.809625 V-47.545124999999985 Q37.809625 -53.01074999999999 41.701875 -56.90299999999999 Q45.594125 -60.795249999999996 51.059875 -60.795249999999996 H68.940125 Q74.405875 -60.795249999999996 78.298125 -56.90299999999999 Q82.190375 -53.01074999999999 82.190375 -47.545124999999985 V-19.17012499999999 H72.190375 V15.54725000000001 H47.809625 Z M60.009375 -65.79525 Q55.451125 -65.79525 52.195625 -69.04137499999999 Q48.940125 -72.28737499999998 48.940125 -76.84575 Q48.940125 -81.404 52.18625 -84.6595 Q55.43225 -87.914875 59.990625 -87.914875 Q64.548875 -87.914875 67.804375 -84.66887499999999 Q71.059875 -81.42275 71.059875 -76.86449999999999 Q71.059875 -72.306125 67.81375 -69.05075 Q64.56775 -65.79525 60.009375 -65.79525 Z"/></g><g id="Medium-M" transform="matrix(1 0 0 1 1689.91 1126)"><path d="M49.073375 15.09875000000001 V-19.78162499999999 H39.073375 V-49.09412499999999 Q39.073375 -53.786249999999995 42.41475 -57.12774999999999 Q45.756125 -60.46912499999999 50.448375 -60.46912499999999 H69.551625 Q74.243875 -60.46912499999999 77.58525 -57.12774999999999 Q80.926625 -53.786249999999995 80.926625 -49.09412499999999 V-19.78162499999999 H70.926625 V15.09875000000001 H49.073375 Z M60.004 -65.46912499999999 Q55.695625 -65.46912499999999 52.623625 -68.53712499999999 Q49.551625 -71.60524999999998 49.551625 -75.91349999999998 Q49.551625 -80.22187499999998 52.619625 -83.29387499999999 Q55.68775 -86.36587499999999 59.996 -86.36587499999999 Q64.304375 -86.36587499999999 67.376375 -83.29787499999999 Q70.448375 -80.22975 70.448375 -75.9215 Q70.448375 -71.613125 67.380375 -68.541125 Q64.31225 -65.46912499999999 60.004 -65.46912499999999 Z"/></g><g id="Regular-M" transform="matrix(1 0 0 1 1394.06 1126)"><path d="M50.0 14.77000000000001 V-20.22999999999999 H40.0 V-50.22999999999999 Q40.0 -54.35499999999999 42.9375 -57.29249999999999 Q45.875 -60.22999999999999 50.0 -60.22999999999999 H70.0 Q74.125 -60.22999999999999 77.0625 -57.29249999999999 Q80.0 -54.35499999999999 80.0 -50.22999999999999 V-20.22999999999999 H70.0 V14.77000000000001 H50.0 Z M60.0 -65.22999999999999 Q55.875 -65.22999999999999 52.9375 -68.16749999999999 Q50.0 -71.10499999999999 50.0 -75.22999999999999 Q50.0 -79.35499999999999 52.9375 -82.29249999999999 Q55.875 -85.22999999999999 60.0 -85.22999999999999 Q64.125 -85.22999999999999 67.0625 -82.29249999999999 Q70.0 -79.35499999999999 70.0 -75.22999999999999 Q70.0 -71.10499999999999 67.0625 -68.16749999999999 Q64.125 -65.22999999999999 60.0 -65.22999999999999 Z"/></g><g id="Light-M" transform="matrix(1 0 0 1 1098.18 1126)"><path d="M50.577 13.51987500000001 V-20.422374999999988 H41.153875 V-50.13387499999999 Q41.153875 -53.86212499999999 43.809 -56.51724999999999 Q46.464 -59.17224999999999 50.192375 -59.17224999999999 H69.807625 Q73.536 -59.17224999999999 76.191 -56.51724999999999 Q78.846125 -53.86212499999999 78.846125 -50.13387499999999 V-20.422374999999988 H69.423 V13.51987500000001 H50.577 Z M60.0 -65.71074999999999 Q56.192375 -65.71074999999999 53.48075 -68.42237499999999 Q50.76925 -71.13387499999999 50.76925 -74.94149999999999 Q50.76925 -78.74924999999999 53.48075 -81.46074999999999 Q56.192375 -84.17224999999999 60.0 -84.17224999999999 Q63.807625 -84.17224999999999 66.51925 -81.46074999999999 Q69.23075 -78.74924999999999 69.23075 -74.94149999999999 Q69.23075 -71.13387499999999 66.51925 -68.42237499999999 Q63.807625 -65.71074999999999 60.0 -65.71074999999999 Z"/></g><g id="Thin-M" transform="matrix(1 0 0 1 802.565 1126)"><path d="M51.153875 12.27000000000001 V-20.61462499999999 H42.307625 V-50.03774999999999 Q42.307625 -53.36937499999999 44.68025 -55.74199999999999 Q47.052875 -58.11462499999999 50.384625 -58.11462499999999 H69.615375 Q72.947125 -58.11462499999999 75.31975 -55.74199999999999 Q77.692375 -53.36937499999999 77.692375 -50.03774999999999 V-20.61462499999999 H68.846125 V12.27000000000001 H51.153875 Z M60.0 -66.19149999999999 Q56.509625 -66.19149999999999 54.024 -68.67712499999999 Q51.5385 -71.16274999999999 51.5385 -74.65312499999999 Q51.5385 -78.14349999999999 54.024 -80.62899999999999 Q56.509625 -83.11462499999999 60.0 -83.11462499999999 Q63.490375 -83.11462499999999 65.976 -80.62899999999999 Q68.4615 -78.14349999999999 68.4615 -74.65312499999999 Q68.4615 -71.16274999999999 65.976 -68.67712499999999 Q63.490375 -66.19149999999999 60.0 -66.19149999999999 Z"/></g><g id="Ultralight-M" transform="matrix(1 0 0 1 506.415 1126)"><path d="M51.5 11.52000000000001 V-20.72999999999999 H43.0 V-49.97999999999999 Q43.0 -53.07374999999999 45.203125 -55.27687499999999 Q47.40625 -57.47999999999999 50.5 -57.47999999999999 H69.5 Q72.59375 -57.47999999999999 74.796875 -55.27687499999999 Q77.0 -53.07374999999999 77.0 -49.97999999999999 V-20.72999999999999 H68.5 V11.52000000000001 H51.5 Z M60.0 -66.47999999999999 Q56.7 -66.47999999999999 54.35 -68.82999999999998 Q52.0 -71.17999999999999 52.0 -74.47999999999999 Q52.0 -77.77999999999999 54.35 -80.13 Q56.7 -82.47999999999999 60.0 -82.47999999999999 Q63.3 -82.47999999999999 65.65 -80.13 Q68.0 -77.77999999999999 68.0 -74.47999999999999 Q68.0 -71.17999999999999 65.65 -68.82999999999998 Q63.3 -66.47999999999999 60.0 -66.47999999999999 Z"/></g><g id="Bold-S" transform="matrix(1 0 0 1 2294.23 696)"><path d="M37.181625000000004 3.726875000000014 V-19.548624999999987 H30.080625 V-38.583249999999985 Q30.080625 -43.38382187499998 33.501729 -46.80246024999999 Q36.922931625000004 -50.22099999999999 41.727054 -50.22099999999999 H52.987662 Q57.791784375000006 -50.22099999999999 61.195530375 -46.80246024999999 Q64.59937500000001 -43.38382187499998 64.59937500000001 -38.583249999999985 V-19.548624999999987 H57.498375 V3.726875000000014 H37.181625000000004 Z M47.328658125000004 -57.32199999999999 Q43.296375000000005 -57.32199999999999 40.43625 -60.193466874999984 Q37.576125000000005 -63.064933749999994 37.576125000000005 -67.09721687499999 Q37.576125000000005 -71.1295 40.447591875 -73.98962499999999 Q43.31905875 -76.84974999999999 47.351341875 -76.84974999999999 Q51.383625 -76.84974999999999 54.243750000000006 -73.97828312499999 Q57.103875 -71.10681625 57.103875 -67.07453312499999 Q57.103875 -63.042249999999996 54.232408125 -60.182124999999985 Q51.36094125 -57.32199999999999 47.328658125000004 -57.32199999999999 Z"/></g><g id="Semibold-S" transform="matrix(1 0 0 1 1998.1 696)"><path d="M38.510794125 3.255250250000014 V-20.19175862499999 H31.409794124999998 V-40.21263362499999 Q31.409794124999998 -44.19954924999999 34.251574875 -47.038765749999996 Q37.093355625 -49.877982249999995 41.083920375000005 -49.877982249999995 H53.630795625 Q57.621360375 -49.877982249999995 60.445783125 -47.038765749999996 Q63.270205875 -44.19954924999999 63.270205875 -40.21263362499999 V-20.19175862499999 H56.169205875 V3.255250250000014 H38.510794125 Z M47.322937875 -56.97898224999999 Q43.553687625 -56.97898224999999 40.886473125 -59.66316024999999 Q38.219258625 -62.347436875 38.219258625 -66.11668712499998 Q38.219258625 -69.88603599999999 40.903535250000004 -72.55325049999999 Q43.58771325 -75.220366375 47.357062125 -75.220366375 Q51.126312375 -75.220366375 53.793526875 -72.536188375 Q56.460741375000005 -69.85201037499999 56.460741375000005 -66.08266149999999 Q56.460741375000005 -62.313312624999995 53.776464749999995 -59.64619674999999 Q51.09228675000001 -56.97898224999999 47.322937875 -56.97898224999999 Z"/></g><g id="Medium-S" transform="matrix(1 0 0 1 1701.85 696)"><path d="M39.507892875 2.9013837500000133 V-20.67423212499999 H32.406892875 V-41.43479462499999 Q32.406892875 -44.81141874999999 34.81403325 -47.21609349999999 Q37.221173625000006 -49.62066962499999 40.601446875 -49.62066962499999 H54.113269125 Q57.493542375000004 -49.62066962499999 59.88332475000001 -47.21609349999999 Q62.273107125 -44.81141874999999 62.273107125 -41.43479462499999 V-20.67423212499999 H55.172107125000004 V2.9013837500000133 H39.507892875 Z M47.318697 -56.72166962499999 Q43.746598125 -56.72166962499999 41.224165125 -59.265405625 Q38.701732125 -61.80914162499998 38.701732125 -65.38124049999999 Q38.701732125 -68.95333937499998 41.245468125 -71.47577237499999 Q43.789204125000005 -73.99820537499998 47.361303 -73.99820537499998 Q50.933401874999994 -73.99820537499998 53.455834875 -71.45446937499999 Q55.978267875 -68.91073337499999 55.978267875 -65.33863449999998 Q55.978267875 -61.76653562499999 53.434531875 -59.244102625 Q50.89079587500001 -56.72166962499999 47.318697 -56.72166962499999 Z"/></g><g id="Regular-S" transform="matrix(1 0 0 1 1405.73 696)"><path d="M40.239000000000004 2.6420000000000137 V-21.027999999999984 H33.138 V-42.33099999999999 Q33.138 -45.26016249999999 35.226483 -47.34608124999999 Q37.314966 -49.43199999999999 40.247679000000005 -49.43199999999999 H54.467037000000005 Q57.399750000000004 -49.43199999999999 59.470875 -47.34608124999999 Q61.542 -45.26016249999999 61.542 -42.33099999999999 V-21.027999999999984 H54.441 V2.6420000000000137 H40.239000000000004 Z M47.315541 -56.53299999999999 Q43.888125 -56.53299999999999 41.4718125 -58.9737715 Q39.0555 -61.414542999999995 39.0555 -64.84195899999999 Q39.0555 -68.269375 41.4962715 -70.68568749999999 Q43.937043 -73.10199999999999 47.364459000000004 -73.10199999999999 Q50.791875000000005 -73.10199999999999 53.2081875 -70.66122849999998 Q55.624500000000005 -68.220457 55.624500000000005 -64.79304099999999 Q55.624500000000005 -61.365624999999994 53.1837285 -58.94931249999999 Q50.742957000000004 -56.53299999999999 47.315541 -56.53299999999999 Z"/></g><g id="Light-S" transform="matrix(1 0 0 1 1109.75 696)"><path d="M40.694253 1.6556513750000121 V-21.179783874999984 H34.048407375000004 V-42.25515737499999 Q34.048407375000004 -44.87128412499998 35.913997875 -46.73440899999999 Q37.779687 -48.59743524999999 40.39936425 -48.59743524999999 H54.315253125000005 Q56.935029 -48.59743524999999 58.7832615 -46.73440899999999 Q60.631592625 -44.87128412499998 60.631592625 -42.25515737499999 V-21.179783874999984 H53.985747 V1.6556513750000121 H40.694253 Z M47.315541 -56.912311749999986 Q44.138533875 -56.912311749999986 41.900436750000004 -59.17476924999998 Q39.66243825 -61.437226749999994 39.66243825 -64.61433249999999 Q39.66243825 -67.79143824999998 41.924895750000005 -70.02943674999999 Q44.18735325 -72.26743524999999 47.364459000000004 -72.26743524999999 Q50.54146612500001 -72.26743524999999 52.77956325 -70.00497774999998 Q55.017561750000006 -67.74252025 55.017561750000006 -64.56541449999999 Q55.017561750000006 -61.388407374999986 52.755104249999995 -59.15040887499998 Q50.492646750000006 -56.912311749999986 47.315541 -56.912311749999986 Z"/></g><g id="Thin-S" transform="matrix(1 0 0 1 814.015 696)"><path d="M41.149407375 0.6695000000000135 V-21.33146912499999 H34.958716125 V-42.17931474999999 Q34.958716125 -44.482504375 36.60151275 -46.122736749999994 Q38.244309375 -47.76296912499999 40.551148125000005 -47.76296912499999 H54.163567875000005 Q56.470406625 -47.76296912499999 58.09584525 -46.122736749999994 Q59.721283875000005 -44.482504375 59.721283875000005 -42.17931474999999 V-21.33146912499999 H53.530592625000004 V0.6695000000000135 H41.149407375 Z M47.315541 -57.291623499999986 Q44.388844125 -57.291623499999986 42.329061 -59.37586562499999 Q40.2693765 -61.460009124999985 40.2693765 -64.38670599999999 Q40.2693765 -67.31350149999999 42.35352 -69.37318599999999 Q44.4376635 -71.43296912499999 47.364459000000004 -71.43296912499999 Q50.291155875 -71.43296912499999 52.350939000000004 -69.34882562499999 Q54.4106235 -67.26458349999999 54.4106235 -64.33788662499998 Q54.4106235 -61.41118974999999 52.32648 -59.351406624999996 Q50.24223787500001 -57.291623499999986 47.315541 -57.291623499999986 Z"/></g><g id="Ultralight-S" transform="matrix(1 0 0 1 517.792 696)"><path d="M41.4225 0.07775000000001242 V-21.422499999999985 H35.505 V-42.13374999999999 Q35.505 -44.249256249999995 37.014061125 -45.75575312499999 Q38.52312225 -47.26224999999999 40.642179000000006 -47.26224999999999 H54.072537000000004 Q56.19159375 -47.26224999999999 57.683296875 -45.75575312499999 Q59.175000000000004 -44.249256249999995 59.175000000000004 -42.13374999999999 V-21.422499999999985 H53.2575 V0.07775000000001242 H41.4225 Z M47.315541 -57.519249999999985 Q44.53905 -57.519249999999985 42.586275 -59.496483999999995 Q40.633500000000005 -61.47371799999999 40.633500000000005 -64.250209 Q40.633500000000005 -67.02669999999999 42.610734 -68.979475 Q44.587968000000004 -70.93225 47.364459000000004 -70.93225 Q50.14095 -70.93225 52.093725000000006 -68.95501599999999 Q54.0465 -66.97778199999999 54.0465 -64.20129099999998 Q54.0465 -61.42479999999999 52.069266 -59.47202499999999 Q50.092032 -57.519249999999985 47.315541 -57.519249999999985 Z"/></g></g></svg>