<svg xmlns="http://www.w3.org/2000/svg" version="1.1" width="3300" height="2000"><g id="Notes"><style>
    text {
      font-family: monospace;
      text-anchor: middle;
    }
    text.emphasis {
      font-weight:bold;
    }
    text.lanchor {
      text-anchor: start;
    }
  </style><rect height="2200" id="artboard" fill="white" width="3300" x="0" y="0"/><line id="" style="fill:none;stroke:black;stroke-width:0.5;" x1="263" x2="3036" y1="292" y2="292"/><text class="lanchor emphasis" transform="matrix(1 0 0 1 263 322)">Weight/Scale Variations</text><text transform="matrix(1 0 0 1 559.711 322)">Ultralight</text><text transform="matrix(1 0 0 1 856.422 322)">Thin</text><text transform="matrix(1 0 0 1 1153.13 322)">Light</text><text transform="matrix(1 0 0 1 1449.84 322)">Regular</text><text transform="matrix(1 0 0 1 1746.56 322)">Medium</text><text transform="matrix(1 0 0 1 2043.27 322)">Semibold</text><text transform="matrix(1 0 0 1 2339.98 322)">Bold</text><text transform="matrix(1 0 0 1 2636.69 322)">Heavy</text><text transform="matrix(1 0 0 1 2933.4 322)">Black</text><text id="template-version" style="text-anchor: end;" transform="matrix(1 0 0 1 3036 1933)">Template v.1.0</text><text class="lanchor" transform="matrix(1 0 0 1 263 726)">Small</text><text class="lanchor" transform="matrix(1 0 0 1 263 1156)">Medium</text><text class="lanchor" transform="matrix(1 0 0 1 263 1586)">Large</text></g><g id="Guides"><g id="H-reference" style="fill:#27AAE1;stroke:none;" transform="matrix(1 0 0 1 339 696)"><path d="M 54.9316 0 L 57.666 0 L 30.5664 -70.459 L 28.0762 -70.459 L 0.976562 0 L 3.66211 0 L 12.9395 -24.4629 L 45.7031 -24.4629 Z M 29.1992 -67.0898 L 29.4434 -67.0898 L 44.8242 -26.709 L 13.8184 -26.709 Z"/></g><line id="Baseline-S" style="fill:none;stroke:#27AAE1;opacity:1;stroke-width:0.577;" x1="263" x2="3036" y1="696" y2="696"/><line id="Capline-S" style="fill:none;stroke:#27AAE1;opacity:1;stroke-width:0.577;" x1="263" x2="3036" y1="625.541" y2="625.541"/><g id="H-reference" style="fill:#27AAE1;stroke:none;" transform="matrix(1 0 0 1 339 1126)"><path d="M 54.9316 0 L 57.666 0 L 30.5664 -70.459 L 28.0762 -70.459 L 0.976562 0 L 3.66211 0 L 12.9395 -24.4629 L 45.7031 -24.4629 Z M 29.1992 -67.0898 L 29.4434 -67.0898 L 44.8242 -26.709 L 13.8184 -26.709 Z"/></g><line id="Baseline-M" style="fill:none;stroke:#27AAE1;opacity:1;stroke-width:0.577;" x1="263" x2="3036" y1="1126" y2="1126"/><line id="Capline-M" style="fill:none;stroke:#27AAE1;opacity:1;stroke-width:0.577;" x1="263" x2="3036" y1="1055.54" y2="1055.54"/><g id="H-reference" style="fill:#27AAE1;stroke:none;" transform="matrix(1 0 0 1 339 1556)"><path d="M 54.9316 0 L 57.666 0 L 30.5664 -70.459 L 28.0762 -70.459 L 0.976562 0 L 3.66211 0 L 12.9395 -24.4629 L 45.7031 -24.4629 Z M 29.1992 -67.0898 L 29.4434 -67.0898 L 44.8242 -26.709 L 13.8184 -26.709 Z"/></g><line id="Baseline-L" style="fill:none;stroke:#27AAE1;opacity:1;stroke-width:0.577;" x1="263" x2="3036" y1="1556" y2="1556"/><line id="Capline-L" style="fill:none;stroke:#27AAE1;opacity:1;stroke-width:0.577;" x1="263" x2="3036" y1="1485.54" y2="1485.54"/><rect height="119.336" id="left-margin" style="fill:darkred;stroke:none;opacity:0.4;" width="12.4512" x="1394.06" y="1030.79"/><rect height="119.336" id="right-margin" style="fill:darkgreen;stroke:none;opacity:0.4;" width="12.4512" x="1502.5112" y="1030.79"/><rect x="1406.5112" y="1045" width="96" height="96" fill="none" stroke="blue" stroke-dasharray="5"/><rect x="1394.06" y="1030.79" width="120.9024" height="119.336" fill="none" stroke="blue"/></g><g id="Symbols"><g id="Bold-L" transform="matrix(1 0 0 1 2266 1556)"><path d="M42.40875 -15.396249999999988 Q46.92375 -15.396249999999988 50.72538000000001 -18.316164999999984 Q54.52717125 -21.235918749999982 56.115 -26.03874999999998 L58.3725 -33.13374999999999 Q61.11375 -41.51874999999998 57.59753250000001 -48.29124999999999 Q54.08115375 -55.063749999999985 47.085 -55.063749999999985 H25.155 L28.21875 -28.692602499999992 Q28.86375 -22.97499999999998 32.908545000000004 -19.185624999999987 Q36.95350125 -15.396249999999988 42.40875 -15.396249999999988 Z M112.3451325 -15.396249999999988 Q117.7125 -15.396249999999988 121.70892 -19.176917499999988 Q125.70550125 -22.95758499999998 126.42 -28.779999999999987 L129.645 -55.063749999999985 H108.02443875 Q101.10375 -55.063749999999985 97.55625 -48.29124999999999 Q94.00875 -41.51874999999998 96.58875 -32.97249999999998 L98.84625 -26.03874999999998 Q100.23864375 -21.235918749999982 104.0368875 -18.316164999999984 Q107.8352925 -15.396249999999988 112.3451325 -15.396249999999988 Z M42.432937499999994 -0.2387499999999818 Q30.96 -0.2387499999999818 22.655625 -7.817499999999988 Q14.35125 -15.396249999999988 13.061250000000001 -27.16749999999999 L9.675 -55.063749999999985 H3.38625 V-70.22124999999998 H45.956250000000004 Q53.33634 -70.22124999999998 60.13286625 -66.23934249999999 Q66.92923125 -62.25743499999999 71.43375 -54.90249999999999 H83.68875 Q88.0425 -62.31999999999999 94.88595000000001 -66.27062499999998 Q101.7294 -70.22124999999998 109.16625 -70.22124999999998 H151.57500000000002 V-55.063749999999985 H145.125 L141.73875 -27.16749999999999 Q140.2875 -15.396249999999988 131.9025 -7.817499999999988 Q123.5175 -0.2387499999999818 112.41479249999999 -0.2387499999999818 Q103.2 -0.2387499999999818 95.62125 -5.963124999999984 Q88.0425 -11.687499999999986 84.495 -21.201249999999987 L81.27 -30.23124999999999 Q80.9475 -30.876249999999985 80.78625 -31.68249999999999 Q80.625 -32.48874999999998 80.5892025 -33.13374999999999 H74.175 Q74.12130375 -32.47085124999998 73.98682125 -31.673469999999995 Q73.8525 -30.876249999999985 73.53 -30.23124999999999 L70.6275 -21.362499999999983 Q67.24125000000001 -11.687499999999986 59.46513 -5.963124999999984 Q51.68884875 -0.2387499999999818 42.432937499999994 -0.2387499999999818 Z"/></g><g id="Semibold-L" transform="matrix(1 0 0 1 1970.27 1556)"><path d="M42.7593075 -14.204451249999984 Q47.76499125 -14.204451249999984 51.9118575 -17.36220999999999 Q56.058723750000006 -20.519807499999985 57.86762625000001 -25.688192499999985 L60.19527 -32.783192499999984 Q63.21693375 -41.65903749999998 59.3364525 -48.95721249999998 Q55.4561325 -56.255548749999974 47.786115 -56.255548749999974 H23.96320125 L27.167238750000003 -28.520387499999984 Q27.882221250000004 -22.34402874999998 32.306760000000004 -18.274239999999985 Q36.73129875 -14.204451249999984 42.7593075 -14.204451249999984 Z M112.01473125 -14.204451249999984 Q117.99291375000001 -14.204451249999984 122.39004000000001 -18.30439374999999 Q126.7873275 -22.404336249999986 127.541655 -28.639712499999987 L130.83679874999999 -56.255548749999974 H107.25898500000001 Q99.63153750000001 -56.255548749999974 95.73348 -48.95721249999998 Q91.83558375000001 -41.65903749999998 94.69599749999999 -32.62194249999999 L97.02348 -25.688192499999985 Q98.6517825 -20.519807499999985 102.83186625 -17.36220999999999 Q107.01178875000001 -14.204451249999984 112.01473125 -14.204451249999984 Z M42.84299625 -1.4305487499999856 Q31.801241250000004 -1.4305487499999856 23.777279999999998 -8.728884999999984 Q15.75331875 -16.02722124999999 14.46331875 -27.30778749999999 L10.936942499999999 -56.255548749999974 H4.7181750000000005 V-69.02945125 H46.93777875 Q53.913453749999995 -69.02945125 60.313950000000006 -65.20137625 Q66.71444625000001 -61.37330124999998 71.08319250000001 -54.3416725 H83.96916375 Q88.25277 -61.40861499999998 94.6798725 -65.21911374999999 Q101.106975 -69.02945125 108.11473875000001 -69.02945125 H150.17293125 V-56.255548749999974 H143.8630575 L140.33668125 -27.30778749999999 Q138.955575 -16.02722124999999 130.88598000000002 -8.728884999999984 Q122.81638500000001 -1.4305487499999856 111.98393250000001 -1.4305487499999856 Q103.0597125 -1.4305487499999856 95.69139374999999 -6.909501249999991 Q88.32291375000001 -12.388614999999987 84.91570125000001 -21.55180749999998 L82.0410975 -29.530134999999987 Q81.648615 -30.52569249999999 81.38206875 -31.75264374999999 Q81.11568375 -32.979433749999984 80.95524 -34.325548749999996 H73.8244425 Q73.65384 -33.039418749999996 73.4026125 -31.85261874999999 Q73.151385 -30.66597999999999 72.7589025 -29.670422499999987 L70.0666725 -21.713057499999984 Q66.75056625 -12.458597499999982 59.27050125 -6.944653749999986 Q51.79043625 -1.4305487499999856 42.84299625 -1.4305487499999856 Z"/></g><g id="Medium-L" transform="matrix(1 0 0 1 1674.31 1556)"><path d="M43.022144999999995 -13.310481249999988 Q48.3959625 -13.310481249999988 52.801796249999995 -16.646582499999987 Q57.20746875 -19.982683749999985 59.1822975 -25.425354999999996 L61.5623475 -32.520354999999995 Q64.7944425 -41.7641725 60.640965 -49.456764999999976 Q56.4874875 -57.149518749999984 48.31195125 -57.149518749999984 H23.06923125 L26.37840375 -28.391064999999983 Q27.146115 -21.87075999999999 31.85542125 -17.59070124999998 Q36.564727500000004 -13.310481249999988 43.022144999999995 -13.310481249999988 Z M111.76672875 -13.310481249999988 Q118.20318375000001 -13.310481249999988 122.90104125 -17.64987999999999 Q127.5987375 -21.989278749999983 128.3830575 -28.534577499999983 L131.73076874999998 -57.149518749999984 H106.68477375 Q98.52729750000002 -57.149518749999984 94.36640249999999 -49.456764999999976 Q90.20534625 -41.7641725 93.27619125 -32.359104999999985 L95.6564025 -25.425354999999996 Q97.46159625 -19.982683749999985 101.92789875 -16.646582499999987 Q106.39420125 -13.310481249999988 111.76672875 -13.310481249999988 Z M43.15066125 -2.3245187499999886 Q32.4322125 -2.3245187499999886 24.618682500000002 -9.412423749999988 Q16.80499125 -16.500489999999985 15.51499125 -27.41292249999998 L11.88348 -57.149518749999984 H5.717280000000001 V-68.13548125 H47.673885 Q54.34624875 -68.13548125 60.4497225 -64.42286125 Q66.55319625 -60.71007999999998 70.820355 -53.920971249999994 H84.17943375 Q88.41063375 -60.72507624999999 94.52523375 -64.43027874999999 Q100.63999500000001 -68.13548125 107.32590375 -68.13548125 H149.12125875 V-57.149518749999984 H142.91652 L139.28500875 -27.41292249999998 Q137.95647 -16.500489999999985 130.12342875 -9.412423749999988 Q122.29054875 -2.3245187499999886 111.66078750000001 -2.3245187499999886 Q102.9545775 -2.3245187499999886 95.74396125 -7.619484999999983 Q88.53318375 -12.914451249999985 85.23110625000001 -21.814644999999985 L82.6196625 -29.00429874999999 Q82.17445125 -30.262854999999988 81.82905375 -31.805211249999985 Q81.4838175 -33.3475675 81.22984875 -35.21951874999999 H73.561605 Q73.3032825 -33.465924999999984 72.96449625 -31.98710124999998 Q72.62554875000001 -30.508116249999986 72.18033750000001 -29.249721249999993 L69.64597125 -21.97589499999998 Q66.3824325 -13.037162499999987 59.12457 -7.680759999999985 Q51.866707500000004 -2.3245187499999886 43.15066125 -2.3245187499999886 Z"/></g><g id="Regular-L" transform="matrix(1 0 0 1 1378.56 1556)"><path d="M43.215 -12.654999999999987 Q48.85875 -12.654999999999987 53.454375 -16.12187499999999 Q58.050000000000004 -19.588749999999983 60.14625 -25.232499999999987 L62.565000000000005 -32.327499999999986 Q65.95125 -41.84124999999999 61.597500000000004 -49.82312499999999 Q57.24375 -57.80499999999999 48.6975 -57.80499999999999 H22.41375 L25.8 -28.296249999999986 Q26.60625 -21.523749999999986 31.524375 -17.089374999999983 Q36.4425 -12.654999999999987 43.215 -12.654999999999987 Z M111.58500000000001 -12.654999999999987 Q118.3575 -12.654999999999987 123.275625 -17.169999999999987 Q128.19375 -21.684999999999988 129.0 -28.457499999999982 L132.38625 -57.80499999999999 H106.26375 Q97.7175 -57.80499999999999 93.36375 -49.82312499999999 Q89.01 -41.84124999999999 92.235 -32.16624999999999 L94.65375 -25.232499999999987 Q96.58875 -19.588749999999983 101.265 -16.12187499999999 Q105.94125 -12.654999999999987 111.58500000000001 -12.654999999999987 Z M43.37625 -2.9799999999999827 Q32.895 -2.9799999999999827 25.235625000000002 -9.913749999999986 Q17.57625 -16.847499999999982 16.28625 -27.48999999999998 L12.5775 -57.80499999999999 H6.45 V-67.47999999999999 H48.213750000000005 Q54.66375 -67.47999999999999 60.549375000000005 -63.85187499999999 Q66.435 -60.22374999999998 70.6275 -53.61249999999998 H84.33375000000001 Q88.52625 -60.22374999999998 94.41187500000001 -63.85187499999999 Q100.2975 -67.47999999999999 106.7475 -67.47999999999999 H148.35 V-57.80499999999999 H142.2225 L138.51375000000002 -27.48999999999998 Q137.22375 -16.847499999999982 129.564375 -9.913749999999986 Q121.905 -2.9799999999999827 111.42375 -2.9799999999999827 Q102.8775 -2.9799999999999827 95.7825 -8.139999999999986 Q88.6875 -13.299999999999983 85.4625 -22.00749999999998 L83.04375 -28.61874999999999 Q82.56 -30.069999999999993 82.156875 -31.843749999999986 Q81.75375 -33.61749999999999 81.43125 -35.874999999999986 H73.36875 Q73.04625 -33.77874999999999 72.643125 -32.08562499999999 Q72.24000000000001 -30.392499999999984 71.75625000000001 -28.941249999999982 L69.3375 -22.16874999999999 Q66.1125 -13.461249999999986 59.0175 -8.220624999999984 Q51.9225 -2.9799999999999827 43.37625 -2.9799999999999827 Z"/></g><g id="Light-L" transform="matrix(1 0 0 1 1082.77 1556)"><path d="M45.385908750000006 -13.399329999999985 Q50.9675775 -13.399329999999985 55.50112125 -16.77316374999998 Q60.03482625000001 -20.146997499999983 62.068995 -25.66674624999999 L64.30166249999999 -32.38958124999998 Q67.50183 -41.593086249999985 63.14808 -49.32695874999999 Q58.79433 -57.06066999999999 50.37208125 -57.06066999999999 H24.8947425 L28.21891125 -28.730496249999987 Q29.02516125 -22.143917499999986 33.881205 -17.771623749999982 Q38.737410000000004 -13.399329999999985 45.385908750000006 -13.399329999999985 Z M109.41409125000001 -13.399329999999985 Q116.06259000000001 -13.399329999999985 120.918795 -17.821288749999987 Q125.77483875 -22.24324749999998 126.58108875 -28.891746249999983 L129.9052575 -57.06066999999999 H104.58916875 Q96.16692 -57.06066999999999 91.78221 -49.32695874999999 Q87.39733875 -41.593086249999985 90.4983375 -32.29025124999998 L92.73100500000001 -25.66674624999999 Q94.66600500000001 -20.146997499999983 99.24921375000001 -16.77316374999998 Q103.8324225 -13.399329999999985 109.41409125000001 -13.399329999999985 Z M45.54715875000001 -6.08115999999999 Q36.12016125 -6.08115999999999 29.174156250000003 -12.33266124999998 Q22.227990000000002 -18.584162499999984 21.0621525 -28.17224874999998 L17.47740375 -57.06066999999999 H11.783988749999999 V-64.37884 H50.01249375 Q55.90424625 -64.37884 61.262583750000005 -60.9987175 Q66.6210825 -57.61875624999999 70.37933625000001 -51.50367249999999 H84.58191375 Q88.3401675 -57.61875624999999 93.69866625 -60.9987175 Q99.05700375 -64.37884 104.94875625 -64.37884 H143.01601125000002 V-57.06066999999999 H137.32259625 L133.7378475 -28.17224874999998 Q132.57201 -18.584162499999984 125.62584375000002 -12.33266124999998 Q118.67983875 -6.08115999999999 109.31492250000001 -6.08115999999999 Q101.5130025 -6.08115999999999 95.10025125 -10.714033749999992 Q88.6875 -15.346746249999981 85.834665 -23.18591499999998 L83.6019975 -29.61108249999998 Q83.1182475 -31.124413749999988 82.7151225 -32.960244999999986 Q82.3119975 -34.79591499999998 81.9894975 -37.54958124999999 H72.8105025 Q72.48800250000001 -35.01924624999998 72.0848775 -33.20211999999998 Q71.6817525 -31.384832499999987 71.1980025 -29.871662499999985 L68.965335 -23.34716499999999 Q66.1125 -15.507996249999984 59.730708750000005 -10.79465874999999 Q53.34907875 -6.08115999999999 45.54715875000001 -6.08115999999999 Z"/></g><g id="Thin-L" transform="matrix(1 0 0 1 787.282 1556)"><path d="M47.55633375 -14.143498749999985 Q53.0760825 -14.143498749999985 57.54754500000001 -17.42429124999999 Q62.019168750000006 -20.705083749999986 63.991417500000004 -26.100831249999985 L66.0380025 -32.45150124999999 Q69.05224875 -41.345083749999986 64.69849875 -48.83079249999999 Q60.34474875 -56.31650124999999 52.046501250000006 -56.31650124999999 H27.37525125 L30.6375 -29.164581249999983 Q31.44375 -22.76408499999998 36.23787375 -18.45371124999999 Q41.031836250000005 -14.143498749999985 47.55633375 -14.143498749999985 Z M107.24366625 -14.143498749999985 Q113.76816375 -14.143498749999985 118.56212625 -18.472416249999988 Q123.35625 -22.801333749999984 124.16250000000001 -29.32583124999998 L127.42474875 -56.31650124999999 H102.91474875 Q94.61650125 -56.31650124999999 90.20083125000001 -48.83079249999999 Q85.785 -41.345083749999986 88.7619975 -32.41425249999999 L90.8085825 -26.100831249999985 Q92.7435825 -20.705083749999986 97.23375 -17.42429124999999 Q101.7239175 -14.143498749999985 107.24366625 -14.143498749999985 Z M47.71758375 -9.18183624999999 Q39.345 -9.18183624999999 33.1120425 -14.751249999999985 Q26.879085000000003 -20.32050249999999 25.8370875 -28.85433624999999 L22.37650125 -56.31650124999999 H17.117171250000002 V-61.27816374999999 H51.810915 Q57.14458125 -61.27816374999999 61.975792500000004 -58.14620499999998 Q66.807165 -55.014246249999985 70.13133375 -49.395167499999985 H84.82991625 Q88.15408500000001 -55.014246249999985 92.9854575 -58.14620499999998 Q97.81666875 -61.27816374999999 103.150335 -61.27816374999999 H137.68282875 V-56.31650124999999 H132.42349875 L128.9629125 -28.85433624999999 Q127.92091500000001 -20.32050249999999 121.6879575 -14.751249999999985 Q115.455 -9.18183624999999 107.2064175 -9.18183624999999 Q100.14866625 -9.18183624999999 94.41816375 -13.287583749999989 Q88.6875 -17.39316999999999 86.20666875 -24.36416874999999 L84.16008375 -30.603414999999984 Q83.67633375 -32.17866624999999 83.27320875000001 -34.07641749999999 Q82.87008375 -35.97416874999999 82.54758375 -39.224001249999986 H72.25241625 Q71.92991625 -36.25958124999998 71.52679125 -34.318292499999984 Q71.12366625 -32.37716499999999 70.63991625 -30.801752499999992 L68.59333125 -24.525418749999986 Q66.1125 -17.554419999999986 60.443917500000005 -13.368208749999987 Q54.775335000000005 -9.18183624999999 47.71758375 -9.18183624999999 Z"/></g><g id="Ultralight-L" transform="matrix(1 0 0 1 491.205 1556)"><path d="M48.85875 -14.58999999999999 Q54.34125 -14.58999999999999 58.775625000000005 -17.814999999999984 Q63.21 -21.039999999999985 65.145 -26.361249999999984 L67.08 -32.48874999999998 Q69.9825 -41.19624999999999 65.62875 -48.533124999999984 Q61.275 -55.86999999999999 53.05125 -55.86999999999999 H28.86375 L32.08875 -29.424999999999983 Q32.895 -23.13624999999999 37.651875000000004 -18.863124999999982 Q42.40875 -14.58999999999999 48.85875 -14.58999999999999 Z M105.94125 -14.58999999999999 Q112.39125 -14.58999999999999 117.14812500000001 -18.863124999999982 Q121.905 -23.13624999999999 122.71125 -29.586249999999993 L125.93625 -55.86999999999999 H101.91 Q93.68625 -55.86999999999999 89.251875 -48.533124999999984 Q84.8175 -41.19624999999999 87.72 -32.48874999999998 L89.655 -26.361249999999984 Q91.59 -21.039999999999985 96.024375 -17.814999999999984 Q100.45875000000001 -14.58999999999999 105.94125 -14.58999999999999 Z M49.02 -11.042499999999983 Q41.28 -11.042499999999983 35.475 -16.202499999999986 Q29.67 -21.362499999999983 28.7025 -29.263749999999987 L25.31625 -55.86999999999999 H20.3175 V-59.41749999999999 H52.89 Q57.88875 -59.41749999999999 62.40375 -56.43437499999999 Q66.91875 -53.45124999999999 69.9825 -48.12999999999998 H84.97875 Q88.0425 -53.45124999999999 92.5575 -56.43437499999999 Q97.0725 -59.41749999999999 102.07125 -59.41749999999999 H134.48250000000002 V-55.86999999999999 H129.48375000000001 L126.0975 -29.263749999999987 Q125.13000000000001 -21.362499999999983 119.325 -16.202499999999986 Q113.52000000000001 -11.042499999999983 105.94125 -11.042499999999983 Q99.33 -11.042499999999983 94.00875 -14.831874999999982 Q88.6875 -18.62124999999999 86.43 -25.071249999999992 L84.495 -31.19874999999999 Q84.01125 -32.81124999999999 83.608125 -34.74624999999999 Q83.205 -36.68124999999999 82.88250000000001 -40.22874999999999 H71.9175 Q71.595 -37.00374999999998 71.191875 -34.98812499999998 Q70.78875000000001 -32.97249999999998 70.305 -31.359999999999985 L68.37 -25.232499999999987 Q66.1125 -18.782499999999985 60.871875 -14.912499999999987 Q55.63125 -11.042499999999983 49.02 -11.042499999999983 Z"/></g><g id="Bold-M" transform="matrix(1 0 0 1 2281.8 1126)"><path d="M33.375 -23.10499999999999 Q36.25 -23.10499999999999 38.4375 -24.79249999999999 Q40.625 -26.47999999999999 41.375 -29.22999999999999 L43.0 -34.97999999999999 Q44.375 -39.72999999999999 42.25 -43.54249999999999 Q40.125 -47.35499999999999 36.125 -47.35499999999999 H22.875 L25.0 -30.97999999999999 Q25.5 -27.60499999999999 27.875 -25.35499999999999 Q30.25 -23.10499999999999 33.375 -23.10499999999999 Z M86.625 -23.10499999999999 Q89.75 -23.10499999999999 92.0625 -25.35499999999999 Q94.375 -27.60499999999999 94.875 -30.97999999999999 L97.0 -47.35499999999999 H84.125 Q80.125 -47.35499999999999 78.0 -43.47999999999999 Q75.875 -39.60499999999999 77.25 -34.85499999999999 L78.75 -29.22999999999999 Q79.5 -26.47999999999999 81.6875 -24.79249999999999 Q83.875 -23.10499999999999 86.625 -23.10499999999999 Z M33.25 -7.35499999999999 Q24.0 -7.35499999999999 17.1875 -13.47999999999999 Q10.375 -19.60499999999999 9.25 -28.97999999999999 L7.0 -47.35499999999999 H1.75 V-63.10499999999999 H35.375 Q41.875 -63.10499999999999 47.375 -60.04249999999999 Q52.875 -56.97999999999999 55.875 -51.60499999999999 H64.375 Q67.375 -56.97999999999999 72.875 -60.04249999999999 Q78.375 -63.10499999999999 84.875 -63.10499999999999 H118.25 V-47.35499999999999 H113.0 L110.625 -28.97999999999999 Q109.375 -19.60499999999999 102.5625 -13.47999999999999 Q95.75 -7.35499999999999 86.75 -7.35499999999999 Q78.875 -7.35499999999999 72.6875 -12.04249999999999 Q66.5 -16.72999999999999 64.0 -24.22999999999999 L61.25 -32.35499999999999 Q61.25 -32.35499999999999 61.25 -32.35499999999999 Q61.25 -32.35499999999999 61.25 -32.35499999999999 H58.75 Q58.75 -32.35499999999999 58.75 -32.35499999999999 Q58.75 -32.35499999999999 58.75 -32.35499999999999 L56.25 -24.35499999999999 Q53.875 -16.72999999999999 47.5 -12.04249999999999 Q41.125 -7.35499999999999 33.25 -7.35499999999999 Z"/></g><g id="Semibold-M" transform="matrix(1 0 0 1 1985.97 1126)"><path d="M33.755375 -21.855124999999987 Q37.065125 -21.855124999999987 39.633125 -23.78712499999999 Q42.201 -25.71912499999999 43.168375 -28.84962499999999 L44.902 -34.59962499999999 Q46.54875 -39.89299999999999 44.043375 -44.248999999999995 Q41.538 -48.60487499999999 36.8315 -48.60487499999999 H21.679375 L23.913125 -30.816999999999993 Q24.4675 -27.007249999999992 27.25 -24.431124999999987 Q30.032625 -21.855124999999987 33.755375 -21.855124999999987 Z M86.244625 -21.855124999999987 Q89.967375 -21.855124999999987 92.714625 -24.431124999999987 Q95.461875 -27.007249999999992 96.01625 -30.816999999999993 L98.249875 -48.60487499999999 H83.364125 Q78.65775 -48.60487499999999 76.15225 -44.186499999999995 Q73.646875 -39.76799999999999 75.293625 -34.47462499999999 L76.90225 -28.84962499999999 Q77.869625 -25.71912499999999 80.437625 -23.78712499999999 Q83.0055 -21.855124999999987 86.244625 -21.855124999999987 Z M33.68475 -8.604874999999993 Q24.8695 -8.604874999999993 18.32875 -14.43099999999999 Q11.788 -20.257124999999988 10.71725 -29.142999999999986 L8.30425 -48.60487499999999 H3.163 V-61.85512499999999 H36.4075 Q42.47275 -61.85512499999999 47.56525 -58.95562499999998 Q52.657625 -56.056124999999994 55.494625 -51.007249999999985 H64.701125 Q67.538 -56.056124999999994 72.6305 -58.95562499999998 Q77.722875 -61.85512499999999 83.788125 -61.85512499999999 H116.837 V-48.60487499999999 H111.69575 L109.212 -29.142999999999986 Q108.07075 -20.257124999999988 101.53 -14.43099999999999 Q94.989125 -8.604874999999993 86.31525 -8.604874999999993 Q78.76625 -8.604874999999993 72.79625 -13.020749999999992 Q66.826125 -17.436499999999988 64.43475 -24.61037499999999 L62.065125 -31.64849999999999 Q61.9565 -32.02887499999999 61.84775 -32.43649999999999 Q61.739125 -32.84412499999999 61.630375 -33.60487499999999 H58.369625 Q58.260875 -32.95274999999999 58.15225 -32.54524999999999 Q58.0435 -32.13762499999999 57.934875 -31.757249999999992 L55.7065 -24.73537499999999 Q53.385875 -17.49087499999999 47.30975 -13.04787499999999 Q41.23375 -8.604874999999993 33.68475 -8.604874999999993 Z"/></g><g id="Medium-M" transform="matrix(1 0 0 1 1689.91 1126)"><path d="M34.04075 -20.91749999999999 Q37.676625 -20.91749999999999 40.529875 -23.032999999999987 Q43.383125 -25.14849999999999 44.513625 -28.564249999999987 L46.32875 -34.31424999999999 Q48.179375 -40.01537499999999 45.388625 -44.778874999999985 Q42.59775 -49.54249999999999 37.361375 -49.54249999999999 H20.782625 L23.097875 -30.694624999999988 Q23.693 -26.55874999999999 26.78125 -23.73812499999999 Q29.869625 -20.91749999999999 34.04075 -20.91749999999999 Z M85.95925 -20.91749999999999 Q90.130375 -20.91749999999999 93.20375 -23.73812499999999 Q96.277125 -26.55874999999999 96.87225 -30.694624999999988 L99.1875 -49.54249999999999 H82.7935 Q77.557125 -49.54249999999999 74.766375 -44.716374999999985 Q71.975625 -39.89037499999999 73.826125 -34.18924999999999 L75.516375 -28.564249999999987 Q76.64675 -25.14849999999999 79.5 -23.032999999999987 Q82.35325 -20.91749999999999 85.95925 -20.91749999999999 Z M34.010875 -9.54249999999999 Q25.52175 -9.54249999999999 19.18475 -15.14437499999999 Q12.84775 -20.74624999999999 11.817875 -29.26537499999999 L9.282625 -49.54249999999999 H4.22275 V-60.91749999999999 H37.182 Q42.92125 -60.91749999999999 47.707875 -58.14037499999999 Q52.494625 -55.363125 55.20925 -50.55874999999999 H64.945625 Q67.660375 -55.363125 72.447 -58.14037499999999 Q77.23375 -60.91749999999999 82.972875 -60.91749999999999 H115.77725 V-49.54249999999999 H110.717375 L108.15225 -29.26537499999999 Q107.092375 -20.74624999999999 100.7555 -15.14437499999999 Q94.4185 -9.54249999999999 85.989125 -9.54249999999999 Q78.68475 -9.54249999999999 72.87775 -13.754499999999993 Q67.070625 -17.966374999999992 64.760875 -24.895749999999992 L62.676625 -31.118624999999987 Q62.486375 -31.78437499999999 62.29625 -32.49762499999999 Q62.106 -33.21099999999999 61.91575 -34.54249999999999 H58.08425 Q57.894 -33.40124999999999 57.70375 -32.68787499999999 Q57.513625 -31.97462499999999 57.323375 -31.30874999999999 L55.298875 -25.020749999999992 Q53.019 -18.061499999999988 47.167125 -13.801999999999992 Q41.31525 -9.54249999999999 34.010875 -9.54249999999999 Z"/></g><g id="Regular-M" transform="matrix(1 0 0 1 1394.06 1126)"><path d="M34.25 -20.22999999999999 Q38.125 -20.22999999999999 41.1875 -22.47999999999999 Q44.25 -24.72999999999999 45.5 -28.35499999999999 L47.375 -34.10499999999999 Q49.375 -40.10499999999999 46.375 -45.16749999999999 Q43.375 -50.22999999999999 37.75 -50.22999999999999 H20.125 L22.5 -30.60499999999999 Q23.125 -26.22999999999999 26.4375 -23.22999999999999 Q29.75 -20.22999999999999 34.25 -20.22999999999999 Z M85.75 -20.22999999999999 Q90.25 -20.22999999999999 93.5625 -23.22999999999999 Q96.875 -26.22999999999999 97.5 -30.60499999999999 L99.875 -50.22999999999999 H82.375 Q76.75 -50.22999999999999 73.75 -45.10499999999999 Q70.75 -39.97999999999999 72.75 -33.97999999999999 L74.5 -28.35499999999999 Q75.75 -24.72999999999999 78.8125 -22.47999999999999 Q81.875 -20.22999999999999 85.75 -20.22999999999999 Z M34.25 -10.22999999999999 Q26.0 -10.22999999999999 19.8125 -15.66749999999999 Q13.625 -21.10499999999999 12.625 -29.35499999999999 L10.0 -50.22999999999999 H5.0 V-60.22999999999999 H37.75 Q43.25 -60.22999999999999 47.8125 -57.54249999999999 Q52.375 -54.85499999999999 55.0 -50.22999999999999 H65.125 Q67.75 -54.85499999999999 72.3125 -57.54249999999999 Q76.875 -60.22999999999999 82.375 -60.22999999999999 H115.0 V-50.22999999999999 H110.0 L107.375 -29.35499999999999 Q106.375 -21.10499999999999 100.1875 -15.66749999999999 Q94.0 -10.22999999999999 85.75 -10.22999999999999 Q78.625 -10.22999999999999 72.9375 -14.29249999999999 Q67.25 -18.35499999999999 65.0 -25.10499999999999 L63.125 -30.72999999999999 Q62.875 -31.60499999999999 62.625 -32.54249999999999 Q62.375 -33.47999999999999 62.125 -35.22999999999999 H57.875 Q57.625 -33.72999999999999 57.375 -32.79249999999999 Q57.125 -31.85499999999999 56.875 -30.97999999999999 L55.0 -25.22999999999999 Q52.75 -18.47999999999999 47.0625 -14.35499999999999 Q41.375 -10.22999999999999 34.25 -10.22999999999999 Z"/></g><g id="Light-M" transform="matrix(1 0 0 1 1098.18 1126)"><path d="M35.7405 -20.13387499999999 Q39.663625 -20.13387499999999 42.82225 -22.43187499999999 Q45.980875 -24.72999999999999 47.279 -28.45112499999999 L49.00975 -33.86462499999999 Q51.057875 -40.00887499999999 47.937625 -45.16749999999999 Q44.817375 -50.32612499999999 39.048125 -50.32612499999999 H21.327 L23.702 -30.74924999999999 Q24.327 -26.22999999999999 27.735625 -23.18187499999999 Q31.144375 -20.13387499999999 35.7405 -20.13387499999999 Z M84.2595 -20.13387499999999 Q88.855625 -20.13387499999999 92.264375 -23.18187499999999 Q95.673 -26.22999999999999 96.298 -30.74924999999999 L98.673 -50.32612499999999 H81.076875 Q75.307625 -50.32612499999999 72.163375 -45.12899999999999 Q69.019125 -39.93187499999999 71.067125 -33.78762499999999 L72.721 -28.45112499999999 Q74.019125 -24.72999999999999 77.17775 -22.43187499999999 Q80.336375 -20.13387499999999 84.2595 -20.13387499999999 Z M35.7405 -12.633999999999993 Q28.356 -12.633999999999993 22.7935 -17.518624999999993 Q17.231 -22.40312499999999 16.32725 -29.83574999999999 L13.75025 -50.32612499999999 H9.134875 V-57.82599999999999 H39.048125 Q43.97125 -57.82599999999999 48.125 -55.306749999999994 Q52.278875 -52.787499999999994 54.759625 -48.40299999999999 H65.365375 Q67.846125 -52.787499999999994 72.0 -55.306749999999994 Q76.15375 -57.82599999999999 81.076875 -57.82599999999999 H110.865125 V-50.32612499999999 H106.24975 L103.67275 -29.83574999999999 Q102.769 -22.40312499999999 97.2065 -17.518624999999993 Q91.644 -12.633999999999993 84.2595 -12.633999999999993 Q77.85575 -12.633999999999993 72.76925 -16.287874999999993 Q67.68275 -19.941624999999988 65.625 -25.970499999999987 L63.89425 -31.306999999999988 Q63.59625 -32.32624999999999 63.34625 -33.43199999999999 Q63.09625 -34.53774999999999 62.84625 -36.67237499999999 H57.15375 Q56.90375 -34.78774999999999 56.65375 -33.65799999999999 Q56.40375 -32.52812499999999 56.10575 -31.50887499999999 L54.375 -26.095499999999987 Q52.365375 -20.066624999999988 47.254875 -16.350374999999993 Q42.14425 -12.633999999999993 35.7405 -12.633999999999993 Z"/></g><g id="Thin-M" transform="matrix(1 0 0 1 802.565 1126)"><path d="M37.23075 -20.03774999999999 Q41.201875 -20.03774999999999 44.45675 -22.38387499999999 Q47.7115 -24.72999999999999 49.057625 -28.54724999999999 L50.64425 -33.62424999999999 Q52.740375 -39.91274999999999 49.5 -45.16749999999999 Q46.259625 -50.42224999999999 40.346125 -50.42224999999999 H22.528875 L24.903875 -30.89349999999999 Q25.528875 -26.22999999999999 29.033625 -23.13387499999999 Q32.5385 -20.03774999999999 37.23075 -20.03774999999999 Z M82.76925 -20.03774999999999 Q87.4615 -20.03774999999999 90.966375 -23.13387499999999 Q94.471125 -26.22999999999999 95.096125 -30.89349999999999 L97.471125 -50.42224999999999 H79.778875 Q73.865375 -50.42224999999999 70.577 -45.15312499999999 Q67.2885 -39.88387499999999 69.384625 -33.59537499999999 L70.942375 -28.54724999999999 Q72.2885 -24.72999999999999 75.54325 -22.38387499999999 Q78.798125 -20.03774999999999 82.76925 -20.03774999999999 Z M37.23075 -15.037624999999991 Q30.7115 -15.037624999999991 25.774 -19.36937499999999 Q20.8365 -23.70112499999999 20.02875 -30.31649999999999 L17.5 -50.42224999999999 H13.269125 V-55.42237499999999 H40.346125 Q44.69225 -55.42237499999999 48.4375 -53.07137499999999 Q52.18275 -50.72037499999999 54.51925 -46.57612499999999 H65.60575 Q67.94225 -50.72037499999999 71.6875 -53.07137499999999 Q75.43275 -55.42237499999999 79.778875 -55.42237499999999 H106.730875 V-50.42224999999999 H102.5 L99.97125 -30.31649999999999 Q99.1635 -23.70112499999999 94.226 -19.36937499999999 Q89.2885 -15.037624999999991 82.76925 -15.037624999999991 Q77.0865 -15.037624999999991 72.601 -18.28287499999999 Q68.115375 -21.52799999999999 66.25 -26.83574999999999 L64.6635 -31.88387499999999 Q64.31725 -33.04724999999999 64.06725 -34.32137499999999 Q63.81725 -35.59537499999999 63.56725 -38.11462499999999 H56.43275 Q56.18275 -35.84537499999999 55.93275 -34.52324999999999 Q55.68275 -33.20112499999999 55.3365 -32.03762499999999 L53.75 -26.96074999999999 Q51.98075 -21.65299999999999 47.447125 -18.34537499999999 Q42.9135 -15.037624999999991 37.23075 -15.037624999999991 Z"/></g><g id="Ultralight-M" transform="matrix(1 0 0 1 506.415 1126)"><path d="M38.125 -19.97999999999999 Q42.125 -19.97999999999999 45.4375 -22.35499999999999 Q48.75 -24.72999999999999 50.125 -28.60499999999999 L51.625 -33.47999999999999 Q53.75 -39.85499999999999 50.4375 -45.16749999999999 Q47.125 -50.47999999999999 41.125 -50.47999999999999 H23.25 L25.625 -30.97999999999999 Q26.25 -26.22999999999999 29.8125 -23.10499999999999 Q33.375 -19.97999999999999 38.125 -19.97999999999999 Z M81.875 -19.97999999999999 Q86.625 -19.97999999999999 90.1875 -23.10499999999999 Q93.75 -26.22999999999999 94.375 -30.97999999999999 L96.75 -50.47999999999999 H79.0 Q73.0 -50.47999999999999 69.625 -45.16749999999999 Q66.25 -39.85499999999999 68.375 -33.47999999999999 L69.875 -28.60499999999999 Q71.25 -24.72999999999999 74.5625 -22.35499999999999 Q77.875 -19.97999999999999 81.875 -19.97999999999999 Z M38.125 -16.47999999999999 Q32.125 -16.47999999999999 27.5625 -20.47999999999999 Q23.0 -24.47999999999999 22.25 -30.60499999999999 L19.75 -50.47999999999999 H15.75 V-53.97999999999999 H41.125 Q45.125 -53.97999999999999 48.625 -51.72999999999999 Q52.125 -49.47999999999999 54.375 -45.47999999999999 H65.75 Q68.0 -49.47999999999999 71.5 -51.72999999999999 Q75.0 -53.97999999999999 79.0 -53.97999999999999 H104.25 V-50.47999999999999 H100.25 L97.75 -30.60499999999999 Q97.0 -24.47999999999999 92.4375 -20.47999999999999 Q87.875 -16.47999999999999 81.875 -16.47999999999999 Q76.625 -16.47999999999999 72.5 -19.47999999999999 Q68.375 -22.47999999999999 66.625 -27.35499999999999 L65.125 -32.22999999999999 Q64.75 -33.47999999999999 64.5 -34.85499999999999 Q64.25 -36.22999999999999 64.0 -38.97999999999999 H56.0 Q55.75 -36.47999999999999 55.5 -35.04249999999999 Q55.25 -33.60499999999999 54.875 -32.35499999999999 L53.375 -27.47999999999999 Q51.75 -22.60499999999999 47.5625 -19.54249999999999 Q43.375 -16.47999999999999 38.125 -16.47999999999999 Z"/></g><g id="Bold-S" transform="matrix(1 0 0 1 2294.23 696)"><path d="M27.516375 -25.663374999999988 Q29.784750000000003 -25.663374999999988 31.461375 -27.044124999999987 Q33.138 -28.424874999999986 33.631125000000004 -30.594624999999986 L35.011875 -35.920374999999986 Q35.8995 -39.37224999999999 34.420125 -42.084437499999986 Q32.94075 -44.79662499999999 30.17925 -44.79662499999999 H18.837375 L21.10575 -31.482249999999986 Q21.50025 -28.917999999999985 23.3248125 -27.29068749999999 Q25.149375000000003 -25.663374999999988 27.516375 -25.663374999999988 Z M67.26225000000001 -25.663374999999988 Q69.62925 -25.663374999999988 71.4045 -27.29068749999999 Q73.17975 -28.917999999999985 73.57425 -31.482249999999986 L75.842625 -44.79662499999999 H64.59937500000001 Q61.837875000000004 -44.79662499999999 60.3585 -42.084437499999986 Q58.879125 -39.37224999999999 59.76675 -35.920374999999986 L61.1475 -30.594624999999986 Q61.640625 -28.424874999999986 63.3665625 -27.044124999999987 Q65.0925 -25.663374999999988 67.26225000000001 -25.663374999999988 Z M27.41775 -14.025624999999987 Q20.514 -14.025624999999987 15.434812500000001 -18.463749999999987 Q10.355625 -22.90187499999999 9.369375 -29.805624999999985 L7.101 -44.79662499999999 H2.16975 V-56.43437499999999 H29.587500000000002 Q34.12425 -56.43437499999999 38.167875 -54.215312499999996 Q42.2115 -51.99624999999999 44.479875 -48.14987499999999 H50.298750000000005 Q52.4685 -52.09487499999999 56.462812500000005 -54.264624999999995 Q60.457125000000005 -56.43437499999999 65.191125 -56.43437499999999 H92.51025 V-44.79662499999999 H87.57900000000001 L85.113375 -29.805624999999985 Q84.02850000000001 -22.90187499999999 78.998625 -18.463749999999987 Q73.96875 -14.025624999999987 67.26225000000001 -14.025624999999987 Q61.246125 -14.025624999999987 56.61075 -17.724062499999988 Q51.975375 -21.422499999999985 50.200125 -27.24137499999999 L47.93175 -34.44099999999999 Q48.030375 -34.145124999999986 48.178312500000004 -33.84924999999999 Q48.32625 -33.55337499999999 48.32625 -32.96162499999999 H46.452375 Q46.551 -33.750624999999985 46.649625 -34.04649999999999 Q46.74825 -34.34237499999999 46.74825 -34.24374999999999 L44.77575 -27.24137499999999 Q43.099125 -21.323874999999987 38.2665 -17.67474999999999 Q33.433875 -14.025624999999987 27.41775 -14.025624999999987 Z"/></g><g id="Semibold-S" transform="matrix(1 0 0 1 1998.1 696)"><path d="M27.816490875000003 -24.677223624999982 Q30.427883625000003 -24.677223624999982 32.404723125000004 -26.250884124999985 Q34.381464 -27.824544624999987 35.046097875 -30.29450912499999 L36.512553000000004 -35.62025912499999 Q37.61458875 -39.50085699999999 35.835097875 -42.64186599999999 Q34.055607 -45.78277637499999 30.7366785 -45.78277637499999 H17.894026875 L20.248205625 -31.35364299999999 Q20.685607500000003 -28.44637524999999 22.8316875 -26.56175012499999 Q24.977866125000002 -24.677223624999982 27.816490875000003 -24.677223624999982 Z M66.962134125 -24.677223624999982 Q69.800758875 -24.677223624999982 71.919026625 -26.56175012499999 Q74.037294375 -28.44637524999999 74.47469625000001 -31.35364299999999 L76.828776375 -45.78277637499999 H63.999044625 Q60.68021475 -45.78277637499999 58.90062525 -42.64186599999999 Q57.121134375 -39.50085699999999 58.22317012500001 -35.62025912499999 L59.68962525 -30.29450912499999 Q60.354259125 -27.824544624999987 62.380411125 -26.250884124999985 Q64.4064645 -24.677223624999982 66.962134125 -24.677223624999982 Z M27.760767750000003 -15.01177637499999 Q21.2000355 -15.01177637499999 16.33525875 -19.214088999999987 Q11.470482 -23.416401624999985 10.52703525 -29.934231999999987 L8.13005325 -45.78277637499999 H3.2846070000000003 V-55.44822362499998 H30.4021425 Q34.59587475 -55.44822362499998 38.31798225 -53.35776812499998 Q42.03999112500001 -51.267312624999995 44.179759125000004 -47.678250249999984 H50.556062625 Q52.597107 -51.365937624999994 56.269902 -53.40708062499998 Q59.942598375 -55.44822362499998 64.333580625 -55.44822362499998 H91.39539300000001 V-45.78277637499999 H86.54994675 L83.998518 -29.934231999999987 Q82.99944675 -23.416401624999985 78.1839825 -19.214088999999987 Q73.368419625 -15.01177637499999 66.91923225000001 -15.01177637499999 Q61.16032125 -15.01177637499999 56.69655375 -18.49590174999999 Q52.232687625000004 -21.979928499999986 50.543142749999994 -27.541490874999987 L48.574883625000005 -33.88357149999999 Q48.5878035 -33.88781237499999 48.64993725 -33.913553499999985 Q48.712169625 -33.93929462499999 48.626365875000005 -33.94777637499999 H46.152259125 Q46.165080375 -34.22224974999999 46.178000250000004 -34.196607249999985 Q46.190821500000006 -34.17086612499999 46.105116375 -33.77212524999999 L44.346928500000004 -27.541490874999987 Q42.713205375 -21.924205374999985 38.11639275 -18.467990874999987 Q33.519678750000004 -15.01177637499999 27.760767750000003 -15.01177637499999 Z"/></g><g id="Medium-S" transform="matrix(1 0 0 1 1701.85 696)"><path d="M28.041651750000003 -23.937437499999987 Q30.910357125 -23.937437499999987 33.112258875 -25.655879499999983 Q35.314160625 -27.374321499999986 36.107500125 -30.069348249999983 L37.63825875 -35.39509824999999 Q38.901151875000004 -39.59741087499999 36.896500125 -43.05993737499998 Q34.89174975 -46.52256249999999 31.154749875000004 -46.52256249999999 H17.186491125 L19.604973375 -31.257089124999986 Q20.074527000000003 -28.092508749999986 22.46184375 -26.01497312499999 Q24.849259125 -23.937437499999987 28.041651750000003 -23.937437499999987 Z M66.73697325 -23.937437499999987 Q69.929365875 -23.937437499999987 72.30494625 -26.01497312499999 Q74.680526625 -28.092508749999986 75.15008025 -31.257089124999986 L77.5685625 -46.52256249999999 H63.548821499999995 Q59.811821625 -46.52256249999999 57.807169875 -43.05993737499998 Q55.802518125 -39.59741087499999 57.065312625000004 -35.39509824999999 L58.596169875 -30.069348249999983 Q59.38941075 -27.374321499999986 61.640625 -25.655879499999983 Q63.891839250000004 -23.937437499999987 66.73697325 -23.937437499999987 Z M28.018080375 -15.751562499999988 Q21.71466075 -15.751562499999988 17.010642750000002 -19.776941874999988 Q12.306624750000001 -23.802321249999984 11.395428375000002 -30.030785874999992 L8.901991125 -46.52256249999999 H4.12074975 V-54.70843749999999 H31.013223000000004 Q34.94974125 -54.70843749999999 38.430513375000004 -52.714535874999996 Q41.911384125 -50.720535625 43.95459825 -47.32438374999999 H50.748973125000006 Q52.693660875000006 -50.819160624999995 56.1251205 -52.763848374999995 Q59.55667875 -54.70843749999999 63.690348375000006 -54.70843749999999 H90.55925025 V-46.52256249999999 H85.77800887500001 L83.16237525 -30.030785874999992 Q82.22750887500001 -23.802321249999984 77.572902 -19.776941874999988 Q72.9181965 -15.751562499999988 66.66191962500001 -15.751562499999988 Q61.09601775 -15.751562499999988 56.76085725000001 -19.07483049999999 Q52.42559812500001 -22.39799987499999 50.800455375 -27.766651749999987 L49.057357125 -33.465500124999984 Q49.005874875 -33.694901874999985 49.00380375 -33.96178112499999 Q49.001634 -34.22875899999999 48.851526750000005 -34.68756249999999 H45.92709825 Q45.875616 -34.57611624999999 45.82413375 -34.30913837499999 Q45.772750125 -34.04225912499999 45.622642875000004 -33.418258749999985 L44.025312375000006 -27.766651749999987 Q42.423741 -22.374428499999986 38.003861625 -19.06299549999999 Q33.58398225 -15.751562499999988 28.018080375 -15.751562499999988 Z"/></g><g id="Regular-S" transform="matrix(1 0 0 1 1405.73 696)"><path d="M28.20675 -23.39499999999999 Q31.264125 -23.39499999999999 33.631125000000004 -25.219562499999988 Q35.998125 -27.044124999999987 36.88575 -29.90424999999999 L38.463750000000005 -35.22999999999999 Q39.844500000000004 -39.66812499999999 37.67475 -43.366562499999986 Q35.505 -47.06499999999999 31.461375 -47.06499999999999 H16.667625 L19.13325 -31.18637499999999 Q19.626375 -27.83312499999999 22.190625 -25.61406249999999 Q24.754875000000002 -23.39499999999999 28.20675 -23.39499999999999 Z M66.571875 -23.39499999999999 Q70.02375 -23.39499999999999 72.58800000000001 -25.61406249999999 Q75.15225000000001 -27.83312499999999 75.645375 -31.18637499999999 L78.111 -47.06499999999999 H63.218625 Q59.175000000000004 -47.06499999999999 57.005250000000004 -43.366562499999986 Q54.8355 -39.66812499999999 56.21625 -35.22999999999999 L57.794250000000005 -29.90424999999999 Q58.681875000000005 -27.044124999999987 61.0981875 -25.219562499999988 Q63.514500000000005 -23.39499999999999 66.571875 -23.39499999999999 Z M28.20675 -16.293999999999986 Q22.092000000000002 -16.293999999999986 17.5059375 -20.18968749999999 Q12.919875000000001 -24.085374999999985 12.032250000000001 -30.101499999999987 L9.468 -47.06499999999999 H4.734 V-54.16599999999998 H31.461375 Q35.209125 -54.16599999999998 38.513062500000004 -52.242812499999985 Q41.817 -50.31962499999999 43.789500000000004 -47.06499999999999 H50.8905 Q52.764375 -50.418249999999986 56.019000000000005 -52.292124999999984 Q59.273625 -54.16599999999998 63.218625 -54.16599999999998 H89.946 V-47.06499999999999 H85.212 L82.549125 -30.101499999999987 Q81.6615 -24.085374999999985 77.12475 -20.18968749999999 Q72.58800000000001 -16.293999999999986 66.47325000000001 -16.293999999999986 Q61.048875 -16.293999999999986 56.808 -19.499312499999988 Q52.567125000000004 -22.704624999999986 50.989125 -27.931749999999987 L49.411125000000006 -33.15887499999999 Q49.3125 -33.55337499999999 49.2631875 -33.99718749999999 Q49.213875 -34.44099999999999 49.016625000000005 -35.22999999999999 H45.762 Q45.663375 -34.83549999999999 45.564750000000004 -34.39168749999999 Q45.466125000000005 -33.94787499999999 45.268875 -33.15887499999999 L43.789500000000004 -27.931749999999987 Q42.2115 -22.704624999999986 37.9213125 -19.499312499999988 Q33.631125000000004 -16.293999999999986 28.20675 -16.293999999999986 Z"/></g><g id="Light-S" transform="matrix(1 0 0 1 1109.75 696)"><path d="M29.3827545 -23.31915737499999 Q32.478100125000005 -23.31915737499999 34.92094275 -25.181591874999988 Q37.363785375 -27.044124999999987 38.289381000000006 -29.98009262499999 L39.75356775 -35.04034412499999 Q41.172288375 -39.59228237499999 38.907661125 -43.366562499999986 Q36.643033875 -47.14084262499999 32.485595625 -47.14084262499999 H17.616003000000003 L20.081628000000002 -31.30018824999999 Q20.574753 -27.83312499999999 23.214845625 -25.57609187499999 Q25.855036875 -23.31915737499999 29.3827545 -23.31915737499999 Z M65.3958705 -23.31915737499999 Q68.92358812500001 -23.31915737499999 71.56377937500001 -25.57609187499999 Q74.203872 -27.83312499999999 74.69699700000001 -31.30018824999999 L77.162622 -47.14084262499999 H62.194404375000005 Q58.036966125000006 -47.14084262499999 55.753402875000006 -43.38549849999999 Q53.469839625000006 -39.63015437499999 54.888461625000005 -35.07821612499999 L56.39061900000001 -29.98009262499999 Q57.31621462500001 -27.044124999999987 59.808369750000004 -25.181591874999988 Q62.30052487500001 -23.31915737499999 65.3958705 -23.31915737499999 Z M29.3827545 -18.19075599999999 Q23.950884000000002 -18.19075599999999 19.8579465 -21.65022512499999 Q15.765009000000003 -25.10959562499999 14.95332525 -30.480811749999987 L12.42694725 -47.14084262499999 H7.996416375 V-52.269243999999986 H32.485595625 Q35.77819125 -52.269243999999986 38.759625 -50.47880574999999 Q41.741157375 -48.68836749999999 43.599844125000004 -45.62349699999999 H51.080155875 Q52.840217625 -48.78699249999999 55.7724375 -50.52811824999999 Q58.704558750000004 -52.269243999999986 62.194404375000005 -52.269243999999986 H86.68358362500001 V-47.14084262499999 H82.25305275000001 L79.62804975 -30.480811749999987 Q78.816366 -25.10959562499999 74.77274100000001 -21.65022512499999 Q70.729116 -18.19075599999999 65.2972455 -18.19075599999999 Q60.44193675 -18.19075599999999 56.675250750000004 -21.073663374999988 Q52.908564750000004 -23.956472124999983 51.48225 -28.614629499999985 L50.018063250000004 -33.61412799999999 Q49.88156625 -34.12244124999999 49.83225375 -34.69900299999999 Q49.78294125 -35.27556474999999 49.58569125 -36.36803387499999 H45.19293375 Q45.09430875 -35.67006474999999 44.995683750000005 -35.07456699999999 Q44.89705875000001 -34.47897062499999 44.66193675 -33.57615737499999 L43.296375000000005 -28.614629499999985 Q41.908030875 -23.956472124999983 38.073096375 -21.073663374999988 Q34.23806325 -18.19075599999999 29.3827545 -18.19075599999999 Z"/></g><g id="Thin-S" transform="matrix(1 0 0 1 814.015 696)"><path d="M30.558561750000003 -23.24331474999999 Q33.691779375 -23.24331474999999 36.21056325 -25.143719874999988 Q38.729248500000004 -27.044124999999987 39.692716125000004 -30.05593524999999 L41.04318825 -34.85068824999999 Q42.499780875 -39.51643974999999 40.140375 -43.366562499999986 Q37.780969125 -47.21668524999999 33.509717625 -47.21668524999999 H18.564282375 L21.029907375 -31.41400149999999 Q21.523032375 -27.83312499999999 24.238967625 -25.53821987499999 Q26.9550015 -23.24331474999999 30.558561750000003 -23.24331474999999 Z M64.22006325 -23.24331474999999 Q67.82362350000001 -23.24331474999999 70.539657375 -25.53821987499999 Q73.255592625 -27.83312499999999 73.748717625 -31.41400149999999 L76.214342625 -47.21668524999999 H61.170282375 Q56.899030875 -47.21668524999999 54.501753 -43.404533124999986 Q52.1043765 -39.59228237499999 53.560969125 -34.92653087499999 L54.987283875 -30.05593524999999 Q55.9507515 -27.044124999999987 58.518749250000006 -25.143719874999988 Q61.086845625 -23.24331474999999 64.22006325 -23.24331474999999 Z M30.558561750000003 -20.08721612499999 Q25.809373500000003 -20.08721612499999 22.209561 -23.110466874999986 Q18.609748500000002 -26.13371762499999 17.87380875 -30.860123499999986 L15.3855 -47.21668524999999 H11.258339625000001 V-50.37278387499999 H33.509717625 Q36.347060250000006 -50.37278387499999 39.0061875 -48.71509487499999 Q41.66531475 -47.057405874999986 43.410188250000004 -44.18209262499999 H51.26981175 Q52.91606025 -47.15603087499999 55.525875 -48.76440737499999 Q58.135689750000004 -50.37278387499999 61.170282375 -50.37278387499999 H83.421660375 V-47.21668524999999 H79.2945 L76.70756625 -30.860123499999986 Q75.9716265 -26.13371762499999 72.4211265 -23.110466874999986 Q68.8706265 -20.08721612499999 64.12143825 -20.08721612499999 Q59.834998500000005 -20.08721612499999 56.5425015 -22.64771837499999 Q53.249905875 -25.20812199999999 51.975375 -29.29731174999999 L50.6250015 -34.069282374999986 Q50.450435250000005 -34.69131024999999 50.401122750000006 -35.400719874999986 Q50.35181025 -36.110030874999985 50.15456025 -37.505969124999986 H44.62406475 Q44.525439750000004 -36.504530874999986 44.42681475 -35.75724924999999 Q44.32818975 -35.00996762499999 44.0549985 -33.993341124999986 L42.80325 -29.29731174999999 Q41.60456175 -25.20812199999999 38.224781625 -22.64771837499999 Q34.8450015 -20.08721612499999 30.558561750000003 -20.08721612499999 Z"/></g><g id="Ultralight-S" transform="matrix(1 0 0 1 517.792 696)"><path d="M31.264125 -23.197749999999985 Q34.420125 -23.197749999999985 36.984375 -25.12093749999999 Q39.548625 -27.044124999999987 40.534875 -30.101499999999987 L41.817 -34.73687499999999 Q43.296375000000005 -39.470874999999985 40.8800625 -43.366562499999986 Q38.463750000000005 -47.26224999999999 34.12425 -47.26224999999999 H19.13325 L21.598875 -31.482249999999986 Q22.092000000000002 -27.83312499999999 24.8535 -25.51543749999999 Q27.615000000000002 -23.197749999999985 31.264125 -23.197749999999985 Z M63.514500000000005 -23.197749999999985 Q67.163625 -23.197749999999985 69.92512500000001 -25.51543749999999 Q72.686625 -27.83312499999999 73.17975 -31.482249999999986 L75.645375 -47.26224999999999 H60.55575 Q56.21625 -47.26224999999999 53.750625 -43.415874999999986 Q51.285000000000004 -39.56949999999999 52.764375 -34.83549999999999 L54.145125 -30.101499999999987 Q55.131375000000006 -27.044124999999987 57.744937500000006 -25.12093749999999 Q60.3585 -23.197749999999985 63.514500000000005 -23.197749999999985 Z M31.264125 -21.22524999999999 Q26.924625000000002 -21.22524999999999 23.620687500000003 -23.986749999999986 Q20.316750000000003 -26.748249999999985 19.626375 -31.087749999999986 L17.16075 -47.26224999999999 H13.21575 V-49.23474999999999 H34.12425 Q36.688500000000005 -49.23474999999999 39.154125 -47.65674999999999 Q41.61975 -46.07874999999999 43.296375000000005 -43.31724999999999 H51.383625 Q52.961625000000005 -46.17737499999999 55.3779375 -47.70606249999999 Q57.794250000000005 -49.23474999999999 60.55575 -49.23474999999999 H81.46425 V-47.26224999999999 H77.51925 L74.955 -31.087749999999986 Q74.26462500000001 -26.748249999999985 71.01 -23.986749999999986 Q67.755375 -21.22524999999999 63.415875 -21.22524999999999 Q59.470875 -21.22524999999999 56.462812500000005 -23.592249999999986 Q53.454750000000004 -25.95924999999999 52.27125 -29.706999999999987 L50.989125 -34.34237499999999 Q50.791875000000005 -35.032749999999986 50.742562500000005 -35.82174999999999 Q50.69325 -36.61074999999999 50.496 -38.18874999999999 H44.282625 Q44.184000000000005 -37.00524999999999 44.085375 -36.16693749999999 Q43.98675 -35.32862499999999 43.690875000000005 -34.24374999999999 L42.507375 -29.706999999999987 Q41.4225 -25.95924999999999 38.3158125 -23.592249999999986 Q35.209125 -21.22524999999999 31.264125 -21.22524999999999 Z"/></g></g></svg>